<?xml version="1.0" standalone="no"?>
<!DOCTYPE svg PUBLIC "-//W3C//DTD SVG 20010904//EN"
 "http://www.w3.org/TR/2001/REC-SVG-20010904/DTD/svg10.dtd">
<svg version="1.0" xmlns="http://www.w3.org/2000/svg"
 width="720.000000pt" height="725.000000pt" viewBox="0 0 720.000000 725.000000"
 preserveAspectRatio="xMidYMid meet">

<g transform="translate(0.000000,725.000000) scale(0.100000,-0.100000)"
fill="#000000" stroke="none">
<path d="M2281 7023 c1 -461 35 -1486 49 -1514 7 -12 6 -19 -3 -22 -9 -3 -9
-9 -2 -22 23 -39 30 -10 33 132 3 160 9 178 53 169 17 -3 32 0 39 9 19 23 46
18 65 -11 9 -14 32 -32 50 -40 41 -17 45 -17 45 -4 0 6 -5 10 -12 10 -18 0
-78 50 -78 66 0 17 12 18 28 2 9 -9 12 -9 12 2 0 9 6 5 16 -9 9 -12 20 -19 25
-14 4 4 9 157 9 340 2 378 1 376 65 346 72 -33 75 -39 85 -162 5 -61 12 -213
15 -338 7 -224 17 -329 37 -366 9 -18 11 -18 34 4 28 26 35 21 56 -33 5 -16
14 -28 20 -28 5 0 3 -7 -5 -14 -11 -11 -13 -32 -10 -78 2 -35 4 -69 3 -75 -1
-22 0 -57 2 -87 3 -26 11 -31 148 -86 l145 -58 7 30 c3 17 2 62 -4 100 -14
101 -8 152 18 156 32 5 41 -32 43 -173 0 -89 5 -133 13 -141 16 -15 233 -104
254 -104 13 0 14 15 9 103 -3 56 -8 112 -11 124 -6 31 28 49 49 25 11 -13 16
-49 20 -144 4 -125 13 -158 41 -158 7 0 54 -18 105 -39 113 -49 109 -54 98
117 -4 69 -2 84 10 89 28 11 43 -26 44 -111 1 -132 9 -167 44 -186 25 -14 31
-24 36 -66 12 -98 -22 -106 -169 -43 -53 22 -130 54 -172 71 -41 16 -88 36
-105 43 -51 23 -150 63 -152 62 0 -1 -3 -15 -6 -32 -10 -58 -17 -67 -51 -60
-17 3 -47 13 -67 21 -29 13 -44 13 -77 4 -23 -6 -42 -15 -42 -20 0 -13 26 -13
52 1 11 6 32 8 46 4 24 -6 25 -8 9 -17 -10 -5 -26 -7 -35 -4 -13 5 -13 3 2 -9
17 -13 18 -15 3 -15 -9 0 -17 -6 -17 -14 0 -13 -14 -19 -76 -30 -11 -2 -35
-18 -52 -35 -18 -19 -41 -31 -56 -31 -21 0 -26 -5 -26 -25 0 -16 -6 -25 -15
-25 -9 0 -15 9 -15 25 0 29 -2 30 -41 10 -16 -9 -34 -13 -38 -10 -5 3 -7 -4
-4 -15 5 -17 0 -20 -29 -20 -19 0 -49 -7 -66 -16 -17 -8 -49 -14 -69 -12 l-38
3 -3 58 c-3 50 -6 57 -23 57 -11 0 -38 18 -60 41 l-40 41 -74 -4 -75 -3 0 42
c0 39 -2 43 -24 43 -23 0 -23 -3 -29 -112 -4 -62 -3 -176 1 -253 5 -77 6 -151
4 -164 -5 -22 -8 -23 -58 -17 -34 4 -54 2 -54 -4 0 -5 -16 -10 -35 -10 -21 0
-37 -6 -43 -16 -7 -12 -19 -15 -46 -12 -22 2 -36 0 -36 -7 0 -6 15 -9 38 -7
27 3 44 -2 61 -17 24 -21 41 -25 93 -21 26 1 26 0 15 -29 -6 -17 -19 -34 -29
-37 -10 -3 -18 -12 -18 -21 0 -11 4 -13 13 -6 6 5 38 20 69 32 32 13 69 34 84
48 17 16 35 23 49 21 25 -5 45 19 45 53 0 17 3 19 13 11 7 -7 30 -10 50 -9 49
4 107 64 107 111 0 30 29 87 30 58 0 -7 5 -10 10 -7 6 4 7 11 3 18 -3 6 7 2
23 -9 16 -11 41 -26 55 -33 17 -8 30 -27 37 -50 16 -54 35 -198 29 -221 -7
-28 14 -42 37 -24 29 21 40 17 54 -16 10 -21 21 -30 37 -30 13 0 27 -4 30 -10
3 -5 18 -10 33 -10 35 0 108 -22 123 -37 9 -9 9 -16 -2 -29 -11 -13 -25 -15
-68 -11 -30 3 -57 10 -60 16 -9 14 -81 25 -81 12 0 -6 9 -11 19 -11 11 0 22
-4 25 -9 3 -5 25 -12 50 -15 24 -4 52 -13 62 -21 19 -15 19 -15 0 -30 -25 -19
-43 -19 -96 0 -49 17 -60 18 -60 6 0 -9 38 -26 83 -35 32 -7 47 -34 26 -47
-13 -9 -62 -5 -95 8 -8 3 -14 1 -14 -4 0 -6 18 -18 40 -28 44 -20 49 -29 23
-44 -26 -14 -9 -25 80 -51 43 -13 81 -28 84 -33 3 -5 -16 -30 -43 -54 -93 -83
-72 -80 -261 -39 -93 21 -184 41 -203 46 -19 4 -77 17 -128 29 -106 24 -78 31
-262 -67 -52 -28 -113 -59 -135 -70 -57 -27 -125 -71 -125 -80 0 -5 13 -7 29
-4 39 6 71 -13 71 -43 0 -13 5 -27 10 -30 12 -7 40 -71 40 -90 0 -7 -7 -15
-14 -18 -10 -4 -13 -1 -9 9 3 9 -2 14 -15 14 -12 0 -27 8 -34 18 -7 10 -25 27
-40 36 l-28 18 0 -27 c0 -39 -28 -29 -63 23 -15 23 -34 42 -41 42 -7 0 -22 13
-34 30 -13 16 -31 30 -41 30 -10 0 -31 11 -47 25 -16 14 -32 25 -36 25 -6 0
-68 38 -93 58 -5 4 -35 23 -65 41 -108 67 -160 104 -160 116 0 6 16 19 35 28
19 9 35 21 35 26 0 14 -38 33 -50 26 -6 -3 -15 6 -22 20 -10 22 -13 24 -21 10
-6 -12 -17 -14 -37 -10 -24 5 -28 2 -34 -19 -3 -15 -11 -26 -16 -26 -6 0 -10
-7 -10 -15 0 -25 -60 -55 -111 -55 -26 0 -62 -6 -80 -13 -29 -12 -41 -12 -81
0 -27 8 -48 18 -48 24 0 5 5 9 10 9 6 0 10 5 10 10 0 16 -28 12 -38 -6 -7 -13
-17 -14 -76 -3 -37 6 -70 9 -73 6 -8 -9 23 -37 40 -37 8 0 24 -18 36 -40 17
-33 18 -40 6 -40 -9 0 -18 7 -21 15 -4 8 -12 15 -19 15 -7 0 -15 3 -17 8 -2 4
-21 24 -43 44 -30 28 -59 42 -115 57 -41 11 -76 18 -77 17 -2 -1 15 -22 37
-45 30 -31 40 -50 40 -74 0 -18 5 -38 11 -44 8 -8 8 -13 -1 -18 -12 -7 -50 21
-50 37 0 5 -9 19 -20 31 -18 18 -22 20 -30 7 -13 -19 -12 -30 0 -30 18 0 11
-25 -10 -38 -30 -18 -37 -9 -34 43 3 39 0 46 -13 41 -9 -4 -29 6 -49 24 -42
36 -136 81 -186 87 -21 3 -35 9 -32 14 11 19 87 8 151 -21 75 -34 88 -36 109
-15 9 8 30 15 48 15 19 0 39 7 47 16 11 14 9 15 -24 9 l-37 -7 4 43 c8 78 16
99 40 99 13 0 26 3 30 7 3 4 23 12 43 19 27 10 39 10 44 2 5 -8 25 -5 67 10
74 28 74 28 70 -5 -4 -32 27 -46 36 -16 3 10 21 28 40 41 18 12 59 49 90 82
79 82 101 82 47 -1 -40 -60 -53 -74 -73 -82 -20 -7 -23 -22 -7 -32 6 -4 21 3
35 16 34 31 33 1 -1 -35 -21 -22 -31 -26 -55 -21 -27 6 -30 4 -30 -19 0 -16
-6 -26 -15 -26 -8 0 -15 -4 -15 -10 0 -5 -9 -10 -20 -10 -32 0 -86 -30 -70
-40 19 -12 68 6 90 32 10 13 22 20 26 15 4 -4 2 -13 -4 -19 -7 -7 -12 -21 -12
-32 0 -16 3 -17 12 -8 7 7 20 12 29 12 9 0 34 8 56 19 21 10 50 24 66 30 15 6
27 17 27 25 0 8 11 24 25 35 25 19 27 19 67 1 40 -18 41 -18 95 6 54 24 73 24
73 0 0 -15 102 -59 127 -54 15 3 18 14 17 76 -2 86 -17 113 -44 79 -24 -29
-36 -16 -18 20 14 28 25 31 86 17 22 -4 33 -44 12 -44 -10 0 -6 -127 5 -161 4
-12 20 -21 43 -24 20 -3 47 -8 59 -11 27 -5 44 22 41 63 -1 15 -1 43 0 61 2
29 4 32 22 22 17 -9 20 -21 20 -83 0 -72 10 -97 37 -97 8 0 33 -9 55 -20 47
-23 58 -24 58 -10 0 6 -6 10 -13 10 -21 0 -36 53 -33 123 2 51 0 70 -10 74
-19 7 -18 28 1 43 12 10 15 29 13 74 l-3 61 -35 -2 c-29 -1 -32 0 -16 9 10 6
33 8 52 5 36 -6 42 0 22 22 -11 11 -10 13 4 8 10 -3 20 -2 23 3 3 5 20 7 38 4
22 -4 28 -3 18 4 -19 13 -7 29 28 37 16 3 35 13 42 21 6 8 20 14 31 14 11 0
37 14 56 32 20 17 30 29 22 26 -8 -3 -39 8 -69 23 -30 16 -60 29 -67 29 -8 0
-14 4 -14 8 0 5 -23 14 -50 21 -28 7 -48 17 -44 22 3 5 -2 6 -10 3 -9 -3 -16
-1 -16 5 0 6 -9 11 -19 11 -28 0 -52 11 -46 21 6 8 -56 29 -89 29 -11 0 -16 3
-13 7 10 9 -41 33 -58 27 -7 -3 -22 -1 -32 5 -11 6 -13 11 -5 11 21 0 3 20
-19 20 -10 0 -19 5 -19 11 0 6 -12 8 -32 5 -18 -3 -27 -3 -19 0 13 6 -91 63
-116 64 -6 0 -24 7 -40 15 -26 14 -172 77 -337 146 -37 16 -74 29 -82 29 -8 0
-14 4 -14 8 0 4 -17 14 -38 21 -20 7 -50 19 -67 27 -16 7 -79 33 -140 59 -60
25 -119 50 -130 55 -11 5 -110 46 -220 90 -110 45 -231 94 -269 111 -38 16
-75 29 -82 29 -19 0 -21 -1059 -2 -1078 9 -9 9 -15 0 -24 -9 -9 -12 -72 -12
-222 0 -178 2 -207 13 -191 14 18 43 12 31 -7 -4 -5 -15 -69 -25 -141 -22
-153 -27 -513 -8 -519 7 -2 13 -39 16 -88 4 -75 3 -82 -11 -71 -15 12 -16 -77
-16 -936 l0 -950 128 4 c153 4 542 30 667 43 256 28 437 46 563 56 l82 6 6 40
c5 26 27 67 69 123 69 92 88 148 64 191 -11 21 -10 27 8 44 12 10 33 22 47 26
72 18 42 56 -41 51 -26 -2 -63 1 -82 6 -47 12 -130 69 -130 89 -1 9 -6 20 -11
23 -6 3 -10 50 -10 104 0 97 0 98 28 111 l27 14 -35 5 c-27 5 -37 13 -45 34
-8 24 -6 31 8 42 22 16 22 32 -2 45 -25 13 -17 46 13 54 44 11 302 36 351 34
28 -1 89 0 136 2 92 3 109 -1 109 -29 0 -27 24 -53 51 -56 13 -1 30 -3 36 -4
18 -2 45 -71 34 -85 -5 -6 -5 -31 -1 -56 4 -25 8 -35 9 -22 1 16 11 27 35 37
38 16 76 63 76 94 0 11 9 25 20 31 11 6 20 16 20 23 0 7 20 35 45 64 25 28 45
58 45 67 0 9 10 20 23 25 54 22 77 75 77 182 0 87 7 94 65 67 21 -9 31 -9 53
4 35 20 52 13 52 -23 0 -16 5 -29 11 -29 7 0 8 14 4 40 -12 71 15 137 30 71 5
-24 12 -30 40 -33 45 -5 68 7 56 30 -13 25 -14 271 -1 287 7 9 7 21 0 39 -16
43 -14 45 55 44 49 0 65 -4 65 -14 0 -8 5 -14 11 -14 7 0 9 -10 5 -24 -3 -14
-1 -37 5 -53 6 -15 12 -68 13 -118 2 -49 4 -117 4 -149 l2 -59 62 7 c56 5 67
11 106 49 35 34 44 39 52 27 5 -8 10 -22 10 -30 0 -40 50 -53 73 -19 l15 21 7
-22 c8 -26 8 -27 -33 -33 -34 -6 -56 -17 -33 -17 7 0 10 -4 7 -8 -2 -4 4 -8
14 -9 39 -3 69 -36 70 -75 0 -41 9 -45 53 -29 14 6 28 18 31 29 4 10 18 25 31
32 14 7 25 19 25 26 0 8 13 20 30 29 16 9 30 20 30 25 0 6 14 10 30 10 30 0
30 -1 24 -43 -4 -23 -13 -53 -21 -65 -8 -13 -13 -26 -10 -28 5 -6 171 216 192
257 9 16 19 29 24 29 10 0 67 -87 81 -124 10 -26 13 -28 68 -25 54 2 77 -2
197 -37 96 -28 223 -152 264 -259 24 -64 68 -272 81 -390 6 -49 15 -119 20
-155 15 -102 12 -152 -15 -226 -14 -38 -25 -74 -25 -80 0 -7 30 -17 67 -24 75
-13 668 3 781 21 35 5 107 9 162 8 54 -1 103 2 109 5 6 4 112 9 237 12 125 2
231 7 237 11 5 3 67 8 136 11 69 2 132 9 139 14 16 14 15 46 -8 213 -11 77
-21 173 -24 213 -3 39 -9 80 -14 90 -9 16 -24 181 -26 287 l-1 50 35 -3 c19
-1 52 -12 73 -23 39 -20 57 -18 57 6 0 13 33 26 85 31 17 2 84 10 150 18 65 8
123 12 127 10 13 -9 48 6 48 20 0 8 14 19 30 26 30 13 52 5 72 -26 4 -6 46
-12 95 -13 141 -4 157 -6 181 -21 19 -13 22 -23 22 -82 0 -52 3 -68 14 -68 8
0 18 -9 21 -20 3 -11 15 -20 26 -20 18 0 19 9 19 215 0 244 3 238 -80 185 -33
-21 -67 -32 -120 -40 -41 -6 -101 -17 -133 -25 -32 -8 -71 -15 -87 -15 -16 0
-71 -6 -122 -14 -106 -17 -350 -43 -603 -66 -55 -5 -154 -16 -220 -25 -66 -8
-196 -20 -290 -25 -93 -6 -183 -12 -200 -15 -16 -2 -35 1 -42 7 -21 17 -15 57
12 82 20 18 25 33 25 69 0 50 -16 67 -63 67 -44 0 -58 -79 -15 -80 4 0 5 -7 2
-14 -3 -8 -22 -16 -42 -18 -43 -4 -49 -17 -22 -48 23 -27 23 -58 -1 -73 -12
-7 -28 -4 -61 11 -63 31 -96 26 -102 -14 -2 -17 -16 -20 -104 -28 -56 -4 -112
-6 -125 -2 -32 8 -59 68 -65 148 -8 107 -3 115 70 123 35 4 90 13 123 21 94
22 112 19 137 -21 13 -19 28 -35 35 -35 15 0 33 32 33 60 0 29 46 44 195 65
266 38 328 47 370 56 28 5 84 14 125 19 127 15 214 31 245 43 16 6 41 10 55 9
14 -1 140 18 280 41 l255 44 0 64 c-1 123 -9 204 -23 226 -11 18 -11 25 0 42
25 41 43 21 44 -49 2 -126 30 -270 54 -270 5 0 87 11 182 24 95 14 197 28 226
31 l52 7 0 610 0 610 -27 -5 c-70 -14 -68 -15 -71 31 -4 52 13 72 62 72 l36 0
0 216 0 215 -22 -7 c-46 -15 -186 -56 -308 -90 -69 -20 -134 -39 -145 -44 -19
-8 -140 -44 -200 -60 -16 -5 -66 -19 -110 -33 -44 -14 -120 -37 -170 -52 -49
-15 -117 -35 -150 -45 -33 -11 -80 -24 -105 -30 -25 -6 -54 -15 -65 -19 -21
-9 -150 -48 -250 -77 -113 -32 -338 -100 -444 -133 l-84 -27 52 -37 c28 -20
53 -37 56 -37 8 0 120 -87 135 -105 11 -14 10 -19 -6 -34 -24 -23 -133 -62
-285 -101 -64 -16 -149 -39 -190 -51 -41 -11 -84 -23 -97 -26 -29 -7 -38 -28
-22 -49 19 -22 6 -29 -110 -57 -225 -54 -237 -60 -208 -107 10 -15 9 -24 -1
-44 -11 -19 -12 -48 -7 -118 4 -51 11 -145 16 -208 16 -220 40 -485 50 -565 5
-44 12 -136 14 -205 3 -69 10 -179 15 -245 7 -99 6 -128 -6 -165 -8 -25 -20
-51 -25 -57 -15 -19 -65 -16 -86 5 -22 22 -40 138 -47 300 -3 56 -7 112 -10
125 -5 22 -27 344 -41 587 -4 69 -8 136 -10 150 -2 14 -6 99 -10 190 -4 104
-11 168 -18 172 -6 4 -22 8 -34 8 -17 0 -27 9 -35 30 -14 38 -21 40 -86 23
-30 -7 -61 -11 -70 -8 -22 7 -56 62 -64 102 -8 40 8 53 105 83 37 11 71 26 75
33 11 18 4 319 -13 576 -15 231 -20 271 -37 282 -5 4 -59 -11 -121 -33 l-111
-39 -20 25 c-12 15 -25 26 -30 26 -5 0 -45 -13 -89 -29 -192 -68 -312 -102
-346 -98 -31 3 -33 5 -12 12 12 4 22 12 22 18 0 15 32 36 56 37 12 0 64 18
115 41 52 22 110 47 129 55 19 8 48 21 64 30 16 8 88 38 160 65 72 28 142 57
154 66 l24 15 -6 374 c-6 356 -6 376 13 416 12 26 33 51 53 62 18 11 38 27 45
36 6 8 34 26 62 40 28 13 51 27 51 32 0 4 9 8 19 8 11 0 21 4 23 8 4 10 96 72
107 72 12 0 41 46 41 65 0 8 -4 15 -8 15 -4 0 -19 18 -32 40 -14 22 -28 40
-31 40 -4 0 -26 18 -50 40 -24 22 -47 40 -51 40 -4 0 -18 10 -32 23 -13 12
-37 32 -53 44 -15 12 -42 33 -59 47 -18 14 -39 26 -47 26 -9 0 -60 -22 -114
-49 -261 -131 -453 -216 -503 -223 -21 -2 -26 2 -28 25 -2 19 1 27 12 27 9 0
16 5 16 10 0 6 11 20 25 32 14 12 25 27 25 34 0 26 33 83 51 87 9 3 27 24 40
48 21 42 82 109 98 109 4 0 14 12 22 28 8 15 35 48 61 74 27 27 48 54 48 61 0
19 43 57 63 57 9 0 17 5 17 10 0 6 -4 10 -10 10 -5 0 -10 5 -10 10 0 6 16 10
35 10 25 0 38 5 42 18 14 36 67 87 91 87 9 0 21 9 26 21 5 11 21 26 35 32 14
7 41 26 60 42 19 17 52 40 73 52 21 12 38 27 38 34 0 6 8 14 18 18 27 9 82 43
106 65 12 12 26 21 30 21 7 0 28 15 83 60 7 6 17 10 23 10 5 0 10 4 10 8 0 5
19 19 43 32 23 13 48 30 56 38 8 7 26 21 40 30 14 9 53 37 86 62 89 68 85 67
114 31 l26 -31 70 43 c60 37 70 48 73 75 l3 32 -1450 0 -1451 0 1 -227z m114
-2291 c-3 -3 -11 0 -18 7 -9 10 -8 11 6 5 10 -3 15 -9 12 -12z m725 -192 c0
-5 -15 -10 -32 -10 -25 0 -29 3 -18 10 20 13 50 13 50 0z m-160 -61 c0 -45 -2
-50 -15 -39 -9 7 -15 29 -15 51 0 28 4 39 15 39 11 0 15 -12 15 -51z m420
-124 c10 -12 10 -15 -4 -15 -9 0 -16 7 -16 15 0 8 2 15 4 15 2 0 9 -7 16 -15z
m10 -40 c0 -2 -7 -5 -15 -9 -9 -3 -15 0 -15 9 0 9 6 12 15 9 8 -4 15 -7 15 -9z
m-3249 -105 c13 -24 16 -37 8 -45 -7 -7 -13 -5 -20 7 -5 9 -15 15 -23 12 -13
-5 -46 35 -46 56 0 7 13 10 31 8 24 -2 36 -11 50 -38z m279 -19 c0 -11 5 -21
11 -23 14 -5 -5 -48 -21 -48 -5 0 -25 -14 -45 -31 -41 -36 -60 -29 -49 16 4
18 17 32 35 38 16 6 33 24 40 39 13 32 29 37 29 9z m2788 -51 c4 0 13 14 19
30 11 30 33 41 33 17 0 -27 -32 -80 -40 -67 -4 7 -13 9 -19 6 -7 -5 -10 7 -9
36 1 37 2 38 5 11 2 -18 7 -33 11 -33z m-1421 14 c-3 -3 -12 -4 -19 -1 -8 3
-5 6 6 6 11 1 17 -2 13 -5z m1118 -14 c3 -5 -1 -10 -9 -10 -9 0 -16 5 -16 10
0 6 4 10 9 10 6 0 13 -4 16 -10z m-1701 -63 c6 -26 6 -27 -14 -10 -11 10 -20
29 -20 42 0 22 2 23 14 11 7 -8 16 -27 20 -43z m261 26 c-3 -16 -16 -36 -28
-45 -27 -21 -112 -25 -120 -5 -3 7 -23 19 -46 27 -23 7 -41 16 -41 20 0 16 56
18 79 3 30 -19 111 -12 126 11 17 28 38 20 30 -11z m1608 20 c-7 -2 -21 -2
-30 0 -10 3 -4 5 12 5 17 0 24 -2 18 -5z m-1333 -53 c29 -29 25 -34 -10 -13
-30 17 -39 33 -20 33 6 0 19 -9 30 -20z m-451 -44 c-13 -14 -31 7 -23 28 6 15
7 15 20 -1 8 -11 9 -22 3 -27z m-702 -26 c-9 -24 -17 -30 -40 -30 l-29 0 24
29 c13 17 30 30 40 30 14 1 15 -3 5 -29z m-117 2 c0 -13 -12 -22 -22 -16 -10
6 -1 24 13 24 5 0 9 -4 9 -8z m2831 -28 c19 -24 20 -181 1 -201 -14 -13 -16
-13 -26 4 -6 10 -12 34 -12 53 -1 19 -4 58 -7 85 -6 66 15 94 44 59z m337 -96
c16 -16 15 -30 -2 -53 -13 -18 -14 -17 -30 13 -9 18 -14 37 -11 42 8 14 29 12
43 -2z m-3470 -46 c2 -7 -6 -12 -17 -12 -21 0 -27 11 -14 24 9 9 26 2 31 -12z
m3795 -145 c1 -47 -1 -89 -6 -93 -10 -10 -59 37 -53 51 2 7 -3 26 -11 44 -12
24 -13 35 -4 44 6 6 11 20 11 32 0 35 21 48 43 27 15 -15 19 -36 20 -105z
m-3617 21 c18 -35 19 -111 2 -106 -7 3 -28 29 -46 59 -18 30 -46 68 -62 86
-35 36 -36 40 -12 45 23 5 100 -50 118 -84z m-177 49 c7 -6 18 -23 23 -37 13
-31 27 -141 21 -157 -8 -20 -29 -15 -40 10 -13 26 -63 184 -63 198 0 12 38 2
59 -14z m658 -113 c23 -30 29 -45 21 -50 -6 -4 -14 -2 -16 4 -2 7 -24 32 -49
57 -24 25 -42 49 -38 55 9 14 43 -14 82 -66z m-308 -6 c-8 -14 -14 -17 -22 -9
-7 7 -6 15 3 25 17 22 32 9 19 -16z m582 4 c-15 -28 -39 -45 -51 -37 -8 5 -4
15 11 31 27 29 55 33 40 6z m245 -23 c0 -8 3 -21 7 -29 3 -8 8 -28 12 -43 5
-24 3 -28 -12 -23 -80 23 -104 26 -123 16 -27 -15 -26 -40 3 -40 12 0 28 -4
35 -9 17 -11 2 -23 -79 -62 -35 -17 -66 -35 -69 -39 -3 -5 -22 -11 -43 -15
-35 -7 -37 -6 -37 19 0 16 -6 26 -14 26 -26 0 -28 20 -3 29 14 6 28 15 32 21
10 16 -32 49 -55 43 -17 -4 -20 0 -20 26 0 17 5 31 10 31 6 0 10 -4 10 -9 0
-14 41 -18 67 -7 16 6 27 5 38 -4 21 -17 20 -41 -2 -33 -14 5 -15 3 -7 -6 9
-10 24 -7 70 15 32 15 67 37 76 48 15 18 19 19 27 7 8 -12 14 -7 31 23 22 36
44 44 46 15z m-583 -61 c9 -31 4 -32 -21 -3 -20 23 -21 25 -3 25 11 0 21 -9
24 -22z m-138 -2 c17 -12 17 -14 2 -37 -10 -14 -17 -44 -18 -74 -1 -51 -3 -51
-13 -2 -5 22 -12 27 -35 27 -39 0 -47 25 -16 46 13 9 27 24 30 35 7 22 24 24
50 5z m-489 -52 c9 -50 -8 -63 -35 -26 -28 40 -27 62 4 62 20 0 25 -6 31 -36z
m3230 26 c19 -8 31 -7 42 2 12 10 16 10 19 1 3 -7 14 -13 26 -13 12 0 44 -8
71 -17 36 -13 55 -28 73 -56 13 -21 37 -46 52 -54 27 -16 57 -63 40 -63 -5 0
-9 -9 -9 -20 0 -19 -2 -19 -52 7 -67 35 -168 44 -216 19 -26 -14 -32 -22 -32
-50 0 -30 4 -35 30 -41 17 -4 30 -11 30 -17 0 -6 9 -8 21 -5 11 3 35 -1 52 -9
l32 -15 -49 6 c-57 8 -56 -9 2 -25 47 -13 75 -13 67 0 -13 22 109 -4 139 -29
21 -18 18 -81 -4 -91 -8 -4 -24 -12 -35 -18 -11 -7 -31 -18 -45 -25 -27 -13
-80 -65 -80 -79 0 -4 5 -17 12 -28 16 -25 11 -29 -48 -36 -31 -4 -58 -15 -75
-30 -14 -13 -36 -24 -50 -25 -95 -2 -204 3 -261 13 -65 11 -69 13 -89 52 -11
22 -28 45 -36 51 -8 6 -18 36 -22 70 -4 33 -10 65 -14 71 -4 7 1 14 13 17 13
3 20 14 20 29 0 37 -10 40 -46 13 -41 -31 -59 -13 -20 20 26 23 34 45 16 45
-17 0 -11 28 8 40 13 9 0 10 -56 7 -57 -3 -77 -1 -89 11 -14 14 -14 17 1 28 9
6 39 14 66 18 27 4 52 11 56 17 3 6 12 8 19 5 7 -2 16 1 18 9 7 18 76 40 88
28 15 -15 -1 -43 -30 -56 l-26 -11 28 -4 c34 -4 35 -20 2 -28 -26 -6 -35 -34
-11 -34 13 0 96 99 96 115 0 13 34 34 57 35 34 0 53 -11 53 -30 0 -15 -8 -18
-45 -18 -49 0 -65 -7 -65 -27 0 -8 16 -15 43 -19 23 -3 60 -8 83 -12 31 -4 45
-2 57 11 24 23 21 60 -5 86 -30 28 -106 62 -124 55 -8 -3 -14 -2 -14 2 1 11
26 42 35 42 4 0 27 13 50 29 26 18 52 27 63 24 11 -2 23 0 26 6 9 13 8 13 42
1z m-2866 -94 c-8 -8 -15 -6 -27 9 -15 20 -15 20 -26 1 -7 -11 -21 -29 -33
-40 -11 -12 -23 -29 -27 -38 -10 -28 -27 -21 -27 12 0 17 9 39 19 49 11 11 24
29 30 40 6 11 30 29 54 39 l42 18 3 -39 c2 -22 -2 -45 -8 -51z m330 53 c0 -19
-1 -19 -16 -5 -8 9 -12 20 -9 26 9 15 25 2 25 -21z m-644 -4 c11 -46 -17 -78
-31 -35 -7 23 2 60 15 60 6 0 12 -11 16 -25z m114 11 c0 -3 -4 -8 -10 -11 -5
-3 -10 -1 -10 4 0 6 5 11 10 11 6 0 10 -2 10 -4z m-226 -27 c-6 -11 -24 -2
-24 11 0 5 7 7 15 4 8 -4 12 -10 9 -15z m296 -24 c0 -8 -7 -15 -16 -15 -9 0
-24 -10 -34 -22 -10 -13 -22 -19 -27 -15 -4 5 8 22 27 38 40 32 50 35 50 14z
m-280 -1 c0 -16 -16 -34 -31 -34 -17 0 -26 20 -14 31 4 5 45 7 45 3z m158 -72
c2 -7 -2 -10 -12 -6 -9 3 -16 11 -16 16 0 13 23 5 28 -10z m722 8 c0 -5 -5
-10 -11 -10 -5 0 -7 5 -4 10 3 6 8 10 11 10 2 0 4 -4 4 -10z m1650 -20 c0 -20
-5 -30 -15 -30 -18 0 -19 14 -5 41 15 27 20 24 20 -11z m114 8 c20 -28 20 -38
1 -38 -8 0 -15 5 -15 11 0 5 -4 8 -9 5 -4 -3 -19 6 -31 19 l-23 25 31 0 c21 0
36 -7 46 -22z m-244 -18 c9 -17 8 -20 -10 -20 -11 0 -20 2 -20 4 0 2 -3 11 -6
20 -9 24 23 20 36 -4z m154 -54 c-6 -15 -24 -23 -24 -11 0 8 24 34 28 30 1 -1
0 -10 -4 -19z m136 14 c0 -5 -6 -10 -14 -10 -8 0 -18 5 -21 10 -3 6 3 10 14
10 12 0 21 -4 21 -10z m807 -26 c7 -7 13 -16 13 -21 0 -15 -75 -8 -93 9 -17
15 -17 17 -2 25 20 12 65 5 82 -13z m-3537 6 c0 -5 -4 -10 -10 -10 -5 0 -10 5
-10 10 0 6 5 10 10 10 6 0 10 -4 10 -10z m2527 -4 c-4 -13 -83 -30 -103 -22
-8 3 -14 12 -14 20 0 12 13 15 60 13 36 -1 59 -5 57 -11z m-452 -16 c9 -15
-43 -36 -56 -23 -6 6 -8 16 -5 22 9 14 53 14 61 1z m-1935 -36 c0 -7 -5 -16
-11 -20 -17 -10 -32 12 -24 36 5 17 10 19 21 9 8 -6 14 -17 14 -25z m-90 -32
c0 -13 -4 -20 -10 -17 -5 3 -10 21 -10 38 0 24 3 28 10 17 5 -8 10 -25 10 -38z
m205 17 c-4 -5 -13 -9 -22 -9 -13 0 -13 3 -3 15 13 15 35 11 25 -6z m3384 -8
c11 -20 5 -31 -15 -31 -14 0 -27 28 -18 41 9 14 23 10 33 -10z m3264 -8 c-7
-2 -19 -2 -25 0 -7 3 -2 5 12 5 14 0 19 -2 13 -5z m-6681 -15 c20 -17 38 -71
38 -116 0 -22 8 -44 20 -57 12 -12 22 -42 26 -71 l6 -49 -31 35 c-54 63 -122
270 -89 270 8 0 21 -6 30 -12z m-84 -26 c2 -14 -2 -22 -12 -22 -19 0 -29 17
-22 36 8 22 30 12 34 -14z m246 -24 c5 -23 3 -28 -13 -28 -28 0 -33 13 -15 39
18 26 19 25 28 -11z m-296 -1 c6 -7 13 -30 16 -52 2 -22 12 -61 21 -88 20 -56
14 -81 -15 -72 -13 4 -22 1 -26 -9 -7 -19 -45 -21 -62 -4 -18 18 -14 72 7 100
13 15 18 35 16 54 -9 65 15 105 43 71z m1819 -39 c-3 -7 -5 -2 -5 12 0 14 2
19 5 13 2 -7 2 -19 0 -25z m-742 -109 c4 -6 5 -12 2 -15 -7 -7 -37 7 -37 17 0
13 27 11 35 -2z m1565 7 c0 -3 -4 -8 -10 -11 -5 -3 -10 -1 -10 4 0 6 5 11 10
11 6 0 10 -2 10 -4z m1090 -43 c0 -45 -10 -63 -35 -67 -11 -2 -21 -9 -23 -16
-3 -9 2 -11 17 -7 27 7 27 -9 0 -23 -25 -14 -69 -5 -69 13 0 21 45 58 62 52
21 -8 41 20 34 48 -5 21 0 37 11 37 2 0 3 -17 3 -37z m-3412 10 c-5 -25 -28
-28 -28 -4 0 12 6 21 16 21 9 0 14 -7 12 -17z m-8 -43 c0 -5 -2 -10 -4 -10 -3
0 -8 5 -11 10 -3 6 -1 10 4 10 6 0 11 -4 11 -10z m965 -14 c17 -13 27 -28 23
-32 -5 -4 -16 0 -26 9 -10 10 -24 17 -30 17 -7 0 -12 7 -12 15 0 21 10 19 45
-9z m1125 -101 c-1 -111 1 -140 11 -151 17 -20 -6 -51 -43 -58 -103 -21 -100
-22 -95 14 6 35 32 70 54 70 20 0 16 18 -6 25 -11 3 -25 12 -31 20 -28 34 67
162 98 131 6 -6 12 -30 12 -51z m-475 35 c-3 -5 -11 -10 -16 -10 -6 0 -7 5 -4
10 3 6 11 10 16 10 6 0 7 -4 4 -10z m-1365 -25 c0 -8 -4 -15 -9 -15 -13 0 -22
16 -14 24 11 11 23 6 23 -9z m730 -5 c0 -5 -4 -10 -10 -10 -5 0 -10 5 -10 10
0 6 5 10 10 10 6 0 10 -4 10 -10z m-627 -20 c29 -23 50 -25 66 -6 9 11 19 11
64 -1 28 -7 54 -18 55 -23 5 -13 32 -13 32 1 0 6 12 9 28 7 19 -2 27 -9 28
-23 2 -41 5 -45 32 -45 38 0 120 -63 122 -93 0 -8 -60 22 -97 49 -21 15 -23
15 -23 0 0 -22 -17 -20 -23 3 -5 20 -64 57 -75 47 -3 -3 4 -17 17 -29 18 -20
61 -93 61 -104 0 -5 -60 38 -99 70 -18 16 -35 26 -38 23 -2 -2 0 -37 6 -78 15
-107 16 -133 6 -136 -5 -2 -16 25 -26 60 -18 65 -33 112 -53 162 l-12 29 -18
-47 c-10 -25 -21 -46 -26 -46 -4 0 -13 -21 -19 -47 -14 -58 -39 -113 -50 -113
-19 0 12 211 39 262 11 22 19 42 17 44 -8 8 -103 -29 -204 -78 -57 -27 -112
-48 -123 -46 -19 3 -19 5 7 31 25 25 242 143 269 146 6 0 23 -8 37 -19z m1627
-6 c0 -8 -4 -14 -10 -14 -5 0 -10 2 -10 4 0 2 -3 12 -6 20 -5 12 -2 15 10 10
9 -3 16 -12 16 -20z m-262 -2 c2 -7 -3 -12 -12 -12 -9 0 -16 7 -16 16 0 17 22
14 28 -4z m-998 -42 c0 -5 -13 -10 -30 -10 -16 0 -30 5 -30 10 0 6 14 10 30
10 17 0 30 -4 30 -10z m94 4 c9 -3 16 -12 16 -19 0 -16 -35 -29 -50 -20 -14 9
-13 32 3 38 6 3 13 6 14 6 1 1 8 -2 17 -5z m206 -44 c14 -27 1 -31 -71 -19
-72 12 -106 30 -70 39 12 3 46 3 76 2 41 -3 58 -9 65 -22z m27 24 c-3 -3 -12
-4 -19 -1 -8 3 -5 6 6 6 11 1 17 -2 13 -5z m1133 -94 c0 -5 -4 -10 -9 -10 -6
0 -13 5 -16 10 -3 6 1 10 9 10 9 0 16 -4 16 -10z m-1470 -176 c0 -8 -4 -12
-10 -9 -5 3 -10 13 -10 21 0 8 5 12 10 9 6 -3 10 -13 10 -21z m-780 -166 c0
-16 -3 -19 -11 -11 -6 6 -8 16 -5 22 11 17 16 13 16 -11z m1709 -145 c19 -16
20 -20 8 -37 -11 -15 -17 -17 -35 -7 -14 7 -22 21 -22 36 0 30 19 32 49 8z
m3438 -85 c-3 -8 -6 -5 -6 6 -1 11 2 17 5 13 3 -3 4 -12 1 -19z m610 -159 c7
-59 8 -98 2 -105 -12 -15 -107 -24 -135 -14 -19 7 -22 19 -27 106 -4 54 -5 99
-3 102 9 8 103 18 126 12 23 -6 26 -13 37 -101z m-5407 -279 c0 -5 -5 -10 -11
-10 -5 0 -7 5 -4 10 3 6 8 10 11 10 2 0 4 -4 4 -10z m-315 -10 c3 -5 2 -10 -4
-10 -5 0 -13 5 -16 10 -3 6 -2 10 4 10 5 0 13 -4 16 -10z m105 0 c0 -5 -15 -9
-32 -9 l-33 1 30 8 c17 4 31 8 33 9 1 0 2 -3 2 -9z"/>
<path d="M3155 3260 c3 -5 21 -10 38 -10 24 0 28 3 17 10 -20 13 -63 13 -55 0z"/>
<path d="M3182 3158 c-24 -24 -11 -45 22 -39 5 1 23 -4 40 -13 17 -8 57 -20
88 -27 60 -13 88 -4 88 27 0 18 -21 29 -30 15 -5 -9 -18 -7 -49 9 -27 15 -50
20 -67 16 -16 -4 -30 -1 -40 9 -19 18 -36 19 -52 3z"/>
<path d="M3054 3112 c-22 -14 -9 -57 26 -89 39 -37 47 -39 74 -18 23 18 47 19
99 4 26 -7 37 -15 33 -24 -3 -8 0 -16 7 -18 7 -2 9 -8 4 -12 -4 -5 -40 -1 -80
7 -39 9 -74 14 -76 12 -10 -10 20 -26 75 -40 100 -26 113 -27 148 -10 19 9 45
16 58 16 31 0 48 17 48 48 0 21 -2 22 -15 12 -12 -10 -18 -10 -30 0 -8 7 -22
10 -30 6 -8 -3 -30 3 -47 14 -42 24 -172 54 -204 46 -15 -4 -24 -2 -24 5 0 6
-9 9 -20 6 -24 -6 -37 8 -15 17 8 3 15 10 15 16 0 12 -30 13 -46 2z"/>
<path d="M3288 3073 c7 -3 16 -2 19 1 4 3 -2 6 -13 5 -11 0 -14 -3 -6 -6z"/>
<path d="M7138 6583 c-21 -9 -38 -20 -38 -25 0 -6 6 -8 13 -5 6 2 29 10 50 18
20 7 37 17 37 21 0 11 -19 8 -62 -9z"/>
<path d="M4995 6580 c-3 -5 -15 -10 -26 -10 -10 0 -19 -4 -19 -10 0 -5 -10
-10 -23 -10 -13 0 -28 -5 -35 -12 -7 -7 -12 -9 -12 -5 0 4 -40 -13 -90 -38
-49 -25 -96 -45 -104 -45 -8 0 -16 -4 -18 -9 -1 -4 -61 -36 -133 -70 -146 -70
-235 -121 -235 -134 0 -5 7 -7 15 -3 9 3 15 0 15 -9 0 -8 4 -15 9 -15 5 0 15
-25 22 -55 7 -30 18 -60 26 -66 7 -6 13 -16 13 -21 0 -5 18 -27 41 -49 22 -21
38 -43 35 -48 -3 -5 3 -7 14 -4 13 4 20 0 20 -10 0 -8 12 -19 28 -24 75 -27
93 -30 129 -23 87 17 133 33 133 46 0 10 13 14 40 14 25 0 40 5 40 13 0 15
106 67 138 67 12 0 22 6 22 14 0 8 16 20 35 26 19 6 38 17 42 23 9 15 4 168
-8 230 -4 26 -9 92 -10 147 -1 55 -5 100 -10 100 -4 0 -19 -4 -33 -10 -16 -6
-27 -6 -31 0 -8 13 -22 13 -30 0z"/>
<path d="M5200 6509 c0 -27 2 -49 5 -49 2 0 17 5 32 11 77 31 90 43 56 52 -10
3 1 5 25 6 29 1 42 5 42 15 0 12 -17 15 -80 14 l-80 0 0 -49z"/>
<path d="M6592 6343 c-18 -8 -31 -18 -28 -20 7 -7 76 20 76 29 0 12 -11 10
-48 -9z"/>
<path d="M6035 6101 c-11 -5 -47 -19 -80 -31 -33 -13 -78 -31 -100 -41 -111
-48 -237 -99 -244 -99 -13 0 -35 -29 -28 -37 7 -6 63 16 204 83 51 24 95 44
97 44 5 0 73 30 161 71 39 18 31 26 -10 10z"/>
<path d="M0 6076 c0 -20 5 -26 23 -26 13 0 32 -8 43 -18 11 -10 32 -22 46 -25
15 -4 33 -14 42 -22 8 -8 19 -15 23 -15 5 0 33 -11 61 -25 29 -14 58 -25 64
-25 7 0 1 11 -14 25 -15 14 -36 25 -48 25 -11 0 -20 4 -20 8 0 10 -65 42 -86
42 -8 0 -25 10 -37 23 -20 19 -37 29 -89 55 -5 2 -8 -8 -8 -22z"/>
<path d="M7175 6060 c-3 -5 1 -10 9 -10 9 0 16 5 16 10 0 6 -4 10 -9 10 -6 0
-13 -4 -16 -10z"/>
<path d="M7171 6014 c-14 -10 -21 -23 -18 -35 5 -18 -17 -34 -34 -23 -10 6
-13 -9 -3 -18 3 -3 23 1 45 10 35 13 39 19 39 49 0 38 1 38 -29 17z"/>
<path d="M5385 6000 c-3 -5 -2 -10 4 -10 5 0 13 5 16 10 3 6 2 10 -4 10 -5 0
-13 -4 -16 -10z"/>
<path d="M5335 5980 c-3 -5 -15 -10 -26 -10 -21 0 -52 -24 -43 -32 6 -7 93 35
94 45 0 10 -18 9 -25 -3z"/>
<path d="M320 5911 c0 -12 6 -21 15 -21 8 0 15 4 15 9 0 5 -7 14 -15 21 -13
10 -15 9 -15 -9z"/>
<path d="M405 5870 c38 -25 49 -25 35 0 -7 12 -21 20 -38 20 l-27 0 30 -20z"/>
<path d="M5050 5849 c-47 -22 -150 -70 -230 -106 -80 -36 -181 -82 -225 -102
-44 -21 -90 -41 -102 -45 -22 -7 -155 -69 -183 -85 -17 -10 -17 -134 1 -261 6
-41 14 -130 18 -197 4 -72 12 -128 19 -135 9 -9 30 -3 90 25 43 20 81 37 86
37 4 0 32 11 62 25 30 14 56 25 58 25 3 0 37 15 78 34 40 19 149 65 242 101
l168 67 30 -22 c16 -12 31 -20 33 -18 2 2 5 39 6 81 1 43 6 80 10 83 5 3 9 9
9 13 0 9 -71 12 -85 3 -5 -4 -14 -7 -20 -7 -5 0 -36 -9 -68 -20 -50 -16 -59
-17 -71 -4 -15 16 -28 110 -18 125 12 16 53 38 139 74 46 19 85 41 87 47 7 16
-11 263 -20 286 -9 23 -17 22 -114 -24z"/>
<path d="M5485 5878 c-35 -21 -179 -78 -198 -78 -22 0 -34 -27 -19 -42 9 -9
26 -6 64 11 155 68 195 87 213 103 19 18 19 18 -10 18 -17 0 -39 -6 -50 -12z"/>
<path d="M6695 5820 c-3 -5 1 -10 9 -10 9 0 16 5 16 10 0 6 -4 10 -9 10 -6 0
-13 -4 -16 -10z"/>
<path d="M6678 5783 c6 -2 18 -2 25 0 6 3 1 5 -13 5 -14 0 -19 -2 -12 -5z"/>
<path d="M6434 5746 c3 -16 6 -39 6 -52 0 -29 12 -30 67 -3 23 11 55 24 70 28
30 8 37 19 24 40 -6 9 -34 14 -91 15 l-82 1 6 -29z"/>
<path d="M6280 5727 c-19 -10 -37 -23 -40 -27 -3 -4 -17 -10 -32 -13 -15 -4
-33 -14 -42 -22 -8 -8 -31 -15 -50 -15 -20 0 -36 -4 -36 -10 0 -5 -18 -13 -40
-16 -22 -4 -40 -10 -40 -15 0 -4 -16 -11 -35 -15 -19 -3 -38 -10 -41 -15 -3
-5 -21 -9 -41 -9 -20 0 -50 -9 -67 -19 -17 -10 -54 -22 -83 -26 -30 -4 -54
-13 -57 -21 -3 -8 -19 -14 -41 -14 -19 0 -35 -4 -35 -9 0 -5 -35 -17 -77 -26
-43 -10 -88 -24 -100 -31 -12 -8 -31 -14 -41 -14 -10 0 -23 -5 -29 -11 -6 -6
-30 -12 -54 -14 -24 -2 -46 -4 -48 -4 -2 -1 3 -9 11 -18 9 -10 21 -48 28 -85
12 -67 17 -76 35 -60 6 5 33 17 60 27 44 16 166 64 250 100 17 7 107 43 200
80 94 36 208 81 255 100 180 71 219 85 229 85 12 0 13 46 3 101 l-7 36 -35
-20z"/>
<path d="M7170 5740 c-12 -8 -11 -10 8 -10 12 0 22 5 22 10 0 13 -11 13 -30 0z"/>
<path d="M7128 5723 c7 -3 16 -2 19 1 4 3 -2 6 -13 5 -11 0 -14 -3 -6 -6z"/>
<path d="M7070 5700 c-9 -6 -10 -10 -3 -10 6 0 15 5 18 10 8 12 4 12 -15 0z"/>
<path d="M6960 5665 c-14 -8 -35 -14 -48 -15 -12 0 -40 -9 -62 -20 -22 -11
-45 -20 -52 -20 -7 0 -25 -6 -39 -14 -14 -7 -39 -16 -55 -20 -48 -12 -144 -50
-144 -58 0 -4 -18 -11 -40 -14 -22 -4 -43 -11 -47 -17 -7 -11 78 -1 87 11 3 4
25 15 50 24 162 60 395 150 399 154 10 10 -26 2 -49 -11z"/>
<path d="M2810 5536 c0 -8 5 -18 10 -21 6 -3 10 3 10 14 0 12 -4 21 -10 21 -5
0 -10 -6 -10 -14z"/>
<path d="M2811 5476 c-7 -8 -10 -20 -6 -26 4 -6 9 -41 11 -77 3 -66 8 -82 21
-69 9 9 5 153 -5 172 -8 14 -10 14 -21 0z"/>
<path d="M6320 5445 c-14 -8 -32 -14 -40 -15 -8 0 -28 -7 -45 -16 -16 -8 -66
-27 -110 -41 -44 -14 -107 -38 -140 -53 -62 -28 -141 -57 -255 -93 -36 -11
-83 -28 -105 -37 -74 -32 -100 -42 -160 -61 -33 -11 -67 -22 -75 -26 -8 -3
-26 -8 -39 -9 -23 -3 -40 -19 -41 -37 0 -29 82 -6 285 80 58 24 155 61 260 99
28 10 69 26 92 36 24 10 46 18 50 18 7 0 94 32 138 51 53 23 163 62 188 66 30
6 46 28 31 43 -5 5 -20 3 -34 -5z"/>
<path d="M2373 5272 c-35 -36 -41 -52 -19 -52 7 0 17 -10 21 -22 l7 -23 8 25
8 25 1 -28 c1 -26 4 -28 33 -25 25 2 33 9 39 30 5 20 4 25 -7 21 -9 -3 -14 2
-14 17 0 17 4 21 20 17 25 -6 38 11 13 19 -10 3 -31 11 -48 17 -28 12 -32 10
-62 -21z m47 11 c0 -5 -5 -15 -10 -23 -8 -12 -10 -11 -10 8 0 12 5 22 10 22 6
0 10 -3 10 -7z"/>
<path d="M6800 5224 c-41 -13 -87 -28 -102 -33 -18 -6 -35 -4 -54 5 -49 26
-97 14 -166 -40 -46 -36 -51 -62 -10 -51 82 22 91 23 104 8 9 -12 9 -16 -3
-24 -11 -7 -10 -9 6 -10 34 -3 56 1 89 15 46 21 176 67 211 75 26 6 30 11 30
41 0 43 -9 45 -105 14z"/>
<path d="M2583 5206 c-29 -13 -30 -26 -2 -26 25 0 55 26 36 32 -6 2 -22 -1
-34 -6z"/>
<path d="M2640 5200 c0 -5 5 -10 11 -10 5 0 7 5 4 10 -3 6 -8 10 -11 10 -2 0
-4 -4 -4 -10z"/>
<path d="M2693 5173 c15 -2 27 -10 27 -18 0 -7 14 -16 30 -20 17 -4 30 -13 30
-20 0 -19 40 -30 51 -14 9 15 3 29 -12 29 -6 0 -7 -4 -4 -10 3 -5 1 -10 -4
-10 -6 0 -11 6 -11 13 0 15 -88 58 -115 56 -13 -1 -10 -4 8 -6z"/>
<path d="M2370 5130 c0 -22 5 -40 10 -40 6 0 10 18 10 40 0 22 -4 40 -10 40
-5 0 -10 -18 -10 -40z"/>
<path d="M2720 5110 c0 -5 4 -10 9 -10 6 0 13 5 16 10 3 6 -1 10 -9 10 -9 0
-16 -4 -16 -10z"/>
<path d="M6325 5070 c-38 -15 -126 -46 -195 -69 -69 -23 -161 -54 -205 -69
-44 -14 -86 -32 -92 -38 -15 -15 -17 -44 -3 -44 6 0 10 -7 10 -16 0 -20 44
-12 117 22 28 13 56 24 62 24 12 0 212 67 326 109 83 30 92 40 81 87 -8 30
-14 29 -101 -6z"/>
<path d="M2353 5050 c0 -25 2 -35 4 -22 2 12 2 32 0 45 -2 12 -4 2 -4 -23z"/>
<path d="M6525 5079 c-4 -6 -17 -14 -29 -19 -20 -8 -20 -9 5 -9 24 -1 49 15
49 31 0 12 -18 10 -25 -3z"/>
<path d="M2380 4970 c0 -22 5 -40 10 -40 6 0 10 18 10 40 0 22 -4 40 -10 40
-5 0 -10 -18 -10 -40z"/>
<path d="M7130 4959 c-19 -6 -48 -16 -65 -24 -16 -7 -42 -17 -57 -20 -16 -4
-28 -11 -28 -17 0 -5 8 -7 18 -4 141 40 202 61 202 68 0 10 -25 9 -70 -3z"/>
<path d="M2352 4905 c0 -16 2 -22 5 -12 2 9 2 23 0 30 -3 6 -5 -1 -5 -18z"/>
<path d="M5715 4865 c-22 -6 -49 -17 -60 -23 -20 -12 -183 -69 -220 -77 -11
-3 -34 -8 -52 -11 -18 -3 -37 -12 -43 -19 -12 -14 -4 -81 11 -90 9 -6 135 36
274 91 150 59 155 63 155 100 0 39 -13 45 -65 29z"/>
<path d="M6840 4864 c-25 -8 -97 -28 -160 -45 -63 -16 -122 -37 -130 -46 -14
-14 -12 -15 20 -10 19 3 100 9 179 13 160 7 181 16 181 74 0 35 -17 38 -90 14z"/>
<path d="M5196 4739 c-23 -14 -370 -147 -411 -159 -16 -4 -82 -27 -145 -50
-63 -22 -142 -50 -175 -61 -92 -31 -90 -27 -76 -176 6 -70 16 -194 20 -275 5
-81 12 -151 16 -157 7 -12 23 -9 145 26 47 14 103 30 125 35 22 6 72 21 110
35 39 13 86 28 105 33 111 27 165 47 161 61 -9 32 -18 135 -12 141 4 5 54 23
111 42 l105 33 14 53 c14 51 14 53 -9 70 -21 16 -22 22 -16 71 5 30 8 61 7 69
-1 48 -13 178 -17 198 -5 24 -27 28 -58 11z m16 -134 c0 -5 -5 -11 -11 -13 -6
-2 -11 4 -11 13 0 9 5 15 11 13 6 -2 11 -8 11 -13z m-329 -472 c-3 -7 -14 -13
-24 -13 -14 0 -19 8 -21 28 -3 65 -5 80 -13 91 -4 7 1 20 11 30 18 17 20 16
35 -52 10 -39 15 -77 12 -84z"/>
<path d="M6345 4716 c-38 -13 -108 -35 -155 -50 -47 -14 -105 -32 -130 -40
-25 -8 -192 -63 -372 -121 -299 -97 -391 -135 -329 -135 20 0 189 50 236 70
11 4 117 40 235 78 118 39 229 75 245 81 17 6 106 35 200 65 93 30 171 59 173
65 6 17 -26 13 -103 -13z"/>
<path d="M2208 4303 c7 -3 16 -2 19 1 4 3 -2 6 -13 5 -11 0 -14 -3 -6 -6z"/>
<path d="M2545 4230 c3 -5 8 -10 11 -10 2 0 4 5 4 10 0 6 -5 10 -11 10 -5 0
-7 -4 -4 -10z"/>
<path d="M795 3920 c-3 -5 1 -10 9 -10 9 0 16 5 16 10 0 6 -4 10 -9 10 -6 0
-13 -4 -16 -10z"/>
<path d="M790 3812 c0 -14 11 -21 26 -15 21 8 17 23 -6 23 -11 0 -20 -4 -20
-8z"/>
<path d="M1201 3786 c-10 -12 -9 -17 6 -24 28 -15 73 -3 73 19 0 15 -7 19 -34
19 -18 0 -39 -6 -45 -14z"/>
<path d="M2092 3773 c-18 -13 -28 -14 -47 -5 -23 11 -25 9 -25 -12 0 -18 7
-25 31 -30 69 -14 144 1 111 22 -7 5 -12 15 -10 23 4 20 -33 21 -60 2z"/>
<path d="M3090 2529 c0 -5 5 -7 10 -4 6 3 10 8 10 11 0 2 -4 4 -10 4 -5 0 -10
-5 -10 -11z"/>
<path d="M3073 2450 c-25 -140 -26 -156 -7 -175 18 -18 19 -17 24 11 3 16 3
74 0 129 l-5 100 -12 -65z"/>
<path d="M4919 2441 l-24 -19 25 -24 c14 -14 33 -34 42 -46 26 -32 46 -27 63
14 8 20 15 39 15 43 0 7 -75 51 -88 51 -6 0 -20 -9 -33 -19z"/>
<path d="M3607 2299 c7 -7 15 -10 18 -7 3 3 -2 9 -12 12 -14 6 -15 5 -6 -5z"/>
<path d="M1893 2118 c-13 -6 -23 -15 -23 -19 0 -10 58 10 66 22 7 12 -16 10
-43 -3z"/>
<path d="M1995 1990 c3 -5 8 -10 11 -10 2 0 4 5 4 10 0 6 -5 10 -11 10 -5 0
-7 -4 -4 -10z"/>
<path d="M6698 1843 c-64 -4 -89 -23 -67 -49 10 -12 23 -14 62 -9 45 7 52 5
68 -16 l18 -24 11 30 c13 33 -1 76 -22 73 -7 -1 -39 -3 -70 -5z"/>
<path d="M7183 1833 c-18 -7 -16 -23 2 -23 8 0 15 7 15 15 0 8 -1 15 -2 14 -2
0 -9 -3 -15 -6z"/>
<path d="M2560 1770 c0 -5 -7 -10 -15 -10 -25 0 -39 -38 -22 -63 28 -45 28
-56 -4 -85 -17 -15 -34 -27 -38 -27 -5 0 -21 -15 -37 -34 -27 -33 -28 -34 -8
-50 10 -9 25 -28 33 -44 19 -36 4 -67 -83 -167 -38 -44 -61 -79 -56 -84 10
-10 248 8 259 19 15 16 -5 555 -20 555 -5 0 -9 -4 -9 -10z"/>
<path d="M6780 1689 c-20 -63 -13 -159 12 -183 39 -37 43 3 14 163 l-12 64
-14 -44z"/>
<path d="M7193 1690 c0 -25 2 -35 4 -22 2 12 2 32 0 45 -2 12 -4 2 -4 -23z"/>
<path d="M6910 1580 c0 -52 10 -72 29 -61 16 10 8 68 -13 90 -15 14 -16 11
-16 -29z"/>
<path d="M7152 1590 c-12 -11 -28 -20 -37 -20 -10 0 -15 -7 -13 -17 2 -14 15
-19 51 -21 l47 -3 0 40 c0 46 -14 52 -48 21z"/>
<path d="M6790 1250 c-118 -4 -269 -10 -335 -14 -66 -3 -282 -8 -480 -12 -198
-4 -376 -8 -395 -10 -19 -1 -201 -5 -405 -9 -821 -13 -879 -15 -887 -28 -4 -6
-12 -37 -18 -67 -6 -30 -17 -68 -25 -85 -20 -47 -45 -137 -39 -147 3 -4 -2
-15 -10 -24 -22 -22 -20 -55 4 -61 24 -6 27 -23 4 -23 -12 0 -15 -6 -10 -25 7
-29 53 -78 61 -64 4 5 17 9 31 9 14 0 24 6 24 14 0 8 7 17 16 20 10 4 14 14
11 26 -3 11 -2 20 3 20 10 0 20 -26 20 -51 0 -11 7 -22 15 -25 24 -10 18 -34
-9 -34 -19 0 -22 4 -18 25 5 30 -17 34 -35 6 -16 -26 -64 -33 -86 -14 -24 22
-27 15 -17 -37 5 -25 9 -62 10 -82 0 -21 5 -38 10 -38 6 0 8 -11 4 -25 -4 -16
-2 -25 6 -25 6 0 8 -5 5 -10 -4 -6 -3 -16 3 -23 5 -7 15 -33 22 -59 10 -39 10
-54 0 -78 -7 -17 -13 -49 -13 -71 0 -22 -3 -42 -8 -45 -4 -2 -5 -12 -2 -21 4
-11 3 -14 -5 -9 -7 4 -12 14 -12 21 0 8 -11 34 -25 59 -29 52 -31 60 -10 52 8
-3 15 -1 15 4 0 6 -9 10 -20 10 -10 0 -30 5 -44 11 -20 9 -30 9 -48 -3 -14 -9
-61 -18 -123 -22 -55 -3 -127 -11 -160 -16 -33 -5 -90 -12 -127 -16 -47 -4
-73 -12 -90 -26 -44 -39 -83 -65 -118 -78 -19 -8 -41 -20 -48 -27 -7 -7 -23
-13 -34 -13 -12 0 -29 -7 -39 -16 -15 -14 -25 -14 -76 -3 -32 7 -70 12 -85 11
-18 -1 -25 3 -22 11 3 9 -7 11 -37 9 -29 -3 -40 -1 -35 7 5 7 1 9 -8 5 -20 -8
-20 -1 1 39 21 40 23 164 4 222 -21 62 -77 142 -111 160 -22 11 -44 14 -68 10
-37 -6 -82 -35 -82 -53 0 -5 -24 -18 -52 -28 -47 -17 -53 -23 -56 -51 -3 -28
-7 -32 -43 -38 -34 -6 -43 -4 -55 14 -9 12 -19 21 -25 21 -17 0 -9 -28 14 -43
l22 -15 -38 -16 c-21 -9 -43 -13 -50 -9 -6 4 -54 8 -107 9 -52 1 -116 5 -141
8 -45 5 -205 54 -264 80 -16 8 -41 17 -55 21 -27 8 -142 66 -150 75 -12 15
-39 18 -49 6 -13 -15 -38 -87 -83 -231 -34 -113 -88 -228 -96 -205 -12 39
-110 117 -135 107 -8 -4 -6 -6 4 -6 22 -1 75 -50 93 -85 10 -20 13 -45 9 -78
l-6 -48 260 0 261 0 12 29 c6 17 9 35 5 40 -12 20 43 57 102 70 67 15 85 24
134 63 42 34 123 58 194 58 55 0 143 39 193 85 34 32 144 85 177 85 28 0 41
-20 43 -68 2 -19 9 -50 18 -70 27 -65 15 -130 -36 -204 -19 -28 -38 -40 -94
-59 l-71 -24 44 -3 c24 -2 48 1 53 6 6 6 22 7 42 1 42 -13 1716 -11 1716 2 0
5 5 9 11 9 5 0 7 -5 4 -11 -5 -7 6 -9 31 -7 28 2 40 8 42 21 3 15 0 18 -16 13
-11 -4 -23 -2 -27 4 -3 5 0 10 9 10 8 0 22 3 32 7 12 4 15 3 10 -6 -5 -8 -1
-14 12 -18 11 -3 23 -11 26 -19 7 -18 100 -20 94 -2 -3 7 -14 13 -26 13 -12 0
-22 5 -22 10 0 14 56 12 77 -2 9 -7 11 -13 5 -13 -7 0 -12 -4 -12 -10 0 -21
36 -8 48 17 14 30 -1 60 -17 34 -7 -11 -17 -12 -52 -3 -23 6 -46 9 -51 6 -4
-3 -5 3 -2 13 3 10 -2 6 -11 -9 -18 -32 -39 -38 -30 -8 4 14 2 20 -9 20 -12 0
-14 7 -10 33 4 22 3 28 -4 18 -5 -7 -15 -11 -21 -7 -7 5 -9 1 -5 -8 4 -11 0
-16 -10 -16 -9 0 -16 6 -16 14 0 8 -7 16 -15 20 -10 4 -14 0 -12 -14 2 -11 6
-23 10 -26 13 -13 7 -24 -12 -24 -11 0 -21 -4 -23 -8 -1 -5 -15 -12 -29 -15
-23 -6 -26 -4 -26 18 0 14 4 28 9 31 5 3 -3 17 -17 31 -28 29 -33 68 -9 77 25
10 32 -4 10 -20 -16 -11 -17 -16 -6 -29 17 -21 28 -19 33 8 l4 22 8 -21 c10
-33 42 -19 49 21 5 23 11 32 20 29 17 -6 52 42 54 74 1 17 -3 22 -13 18 -16
-6 -35 22 -28 42 3 6 -2 12 -11 12 -9 0 -16 7 -16 15 0 8 -4 15 -9 15 -5 0
-11 14 -15 32 -5 24 -9 29 -18 20 -7 -7 -17 -12 -22 -12 -6 0 -2 7 8 15 10 8
22 12 27 10 4 -3 10 4 14 15 3 11 13 27 22 36 12 12 13 18 4 23 -7 5 -13 14
-14 22 -2 8 -6 20 -11 28 -6 9 -3 18 9 28 17 12 17 13 2 13 -9 0 -17 5 -17 10
0 6 3 9 8 9 21 -4 22 3 1 20 l-24 20 25 10 c14 5 21 10 15 11 -5 0 -4 4 4 9 7
5 10 14 6 20 -5 9 -11 7 -20 -6 -7 -10 -17 -15 -21 -11 -9 10 -37 -29 -30 -41
12 -19 -6 -41 -32 -39 -36 4 -38 -17 -2 -32 36 -15 39 -30 5 -30 -15 0 -25 6
-25 14 0 23 -22 31 -32 12 -8 -14 -13 -15 -24 -5 -11 9 -12 15 -2 26 9 11 9
16 -1 23 -10 5 -10 9 -2 15 9 5 9 10 0 21 -9 11 -9 18 -2 25 12 12 26 -18 21
-42 -2 -9 4 -13 17 -11 11 2 27 3 36 3 11 0 19 12 23 31 7 35 -2 78 -16 78 -5
0 -3 7 6 15 8 8 24 15 35 15 25 0 37 18 22 33 -8 8 -11 8 -11 -1 0 -7 -7 -12
-15 -12 -8 0 -15 9 -15 20 0 12 7 20 16 20 19 0 15 41 -5 48 -10 3 -12 0 -8
-12 7 -19 -4 -21 -21 -4 -9 9 -12 8 -12 -5 0 -23 -17 -21 -23 3 -3 10 1 24 9
31 21 17 17 29 -11 29 -27 0 -32 -9 -14 -27 8 -8 8 -13 0 -17 -16 -10 -13 -52
4 -66 12 -10 18 -10 29 -1 11 9 16 9 21 0 4 -6 3 -14 -2 -18 -6 -3 -13 -13
-16 -21 -4 -12 -6 -11 -6 3 -1 11 -9 17 -26 17 -16 0 -25 6 -25 15 0 18 -16
20 -23 3 -3 -7 -4 3 -4 22 1 19 6 38 11 41 5 4 5 12 1 19 -5 8 -12 2 -21 -16
-11 -20 -12 -29 -3 -34 8 -6 8 -9 -1 -15 -7 -4 -9 -17 -6 -31 7 -25 -3 -31
-21 -13 -18 18 -23 -6 -7 -30 9 -12 22 -20 30 -17 8 3 14 1 14 -4 0 -13 32 0
47 19 9 13 14 14 25 3 10 -10 10 -17 0 -32 -10 -16 -9 -21 8 -30 12 -6 17 -16
13 -26 -5 -13 -8 -13 -24 2 -11 9 -19 25 -19 36 0 19 -15 25 -24 9 -8 -12 -46
-2 -69 17 -19 17 -51 76 -36 67 5 -4 9 -1 9 5 0 6 7 10 16 8 10 -2 19 3 21 10
3 6 -3 12 -13 12 -17 0 -17 1 1 13 29 22 9 42 -22 22 -13 -9 -30 -14 -36 -12
-8 3 -6 7 5 12 15 6 14 10 -11 31 -16 13 -34 24 -40 24 -6 0 -11 5 -11 10 0 6
7 10 15 10 8 0 15 -4 15 -10 0 -5 6 -10 14 -10 7 0 19 -7 26 -15 8 -10 17 -12
29 -6 9 5 23 9 31 9 52 -3 62 2 56 26 -4 16 -1 26 10 30 11 4 13 10 4 25 -9
18 -7 19 17 17 16 -2 29 -4 30 -5 1 0 -9 -13 -22 -27 -14 -15 -22 -30 -19 -35
10 -16 24 -9 34 16 12 31 59 52 75 33 15 -19 52 -38 59 -31 3 4 6 13 6 20 0
10 -7 12 -22 8 -20 -6 -21 -6 -7 6 22 19 30 44 16 58 -8 8 -5 11 12 11 23 0
23 -6 4 -57 -3 -8 3 -13 13 -13 11 0 29 -3 42 -6 19 -5 23 -2 28 24 4 17 9 31
13 30 20 -2 22 4 5 17 -28 21 -31 19 -39 -27 -4 -24 -10 -35 -12 -25 -3 9 -11
17 -19 17 -8 0 -14 5 -14 10 0 6 6 10 14 10 7 0 16 9 19 20 4 17 1 20 -21 16
-15 -2 -43 -5 -62 -5 -24 -1 -31 -4 -21 -10 11 -7 9 -10 -8 -16 -12 -3 -19
-10 -16 -15 3 -5 1 -11 -4 -14 -5 -3 -12 5 -15 19 -7 29 -32 33 -39 8 -4 -15
-5 -15 -6 2 -1 17 -8 20 -41 20 -22 0 -40 -3 -40 -8 0 -4 -5 -5 -11 -2 -6 5
-3 13 10 22 15 10 47 14 114 13 50 -1 128 2 172 7 91 10 226 7 295 -6 3 -1 -2
-6 -10 -11 -8 -5 -30 -7 -47 -4 -35 7 -40 -2 -23 -41 l9 -20 1 20 c2 11 2 23
1 27 -2 13 11 9 23 -8 9 -12 17 -13 39 -5 15 6 27 17 27 26 0 8 7 15 15 15 8
0 15 -4 15 -10 0 -5 8 -10 18 -9 10 0 12 3 5 6 -33 13 -3 18 107 20 68 1 120
-2 120 -8 0 -5 -7 -9 -15 -9 -8 0 -15 -4 -15 -10 0 -5 5 -10 11 -10 16 0 39
26 31 35 -4 4 0 5 8 3 8 -3 23 -1 32 3 25 13 193 19 596 20 199 1 364 4 366 8
2 3 46 5 98 3 51 -2 100 -4 108 -4 8 0 78 3 155 8 77 4 151 7 165 7 14 -1 31
4 39 10 11 9 15 9 18 1 3 -9 13 -9 39 -1 27 8 40 8 55 -1 10 -7 48 -12 84 -12
l65 0 0 50 0 50 -97 -2 c-54 -1 -195 -5 -313 -8z m-2403 -196 c-3 -3 -12 -4
-19 -1 -8 3 -5 6 6 6 11 1 17 -2 13 -5z m283 -3 c0 -5 -7 -14 -15 -21 -16 -14
-18 -10 -9 14 6 17 24 22 24 7z m-208 -31 c-2 -8 3 -10 13 -7 17 7 18 5 9 -17
-4 -10 -18 -16 -35 -16 -19 0 -29 -5 -29 -15 0 -8 -4 -15 -10 -15 -5 0 -10 7
-10 15 0 8 4 15 9 15 5 0 14 14 20 31 10 29 40 37 33 9z m-72 -10 c-34 -11
-60 -11 -35 0 11 5 29 8 40 8 16 0 15 -2 -5 -8z m-110 -70 c0 -16 -40 -51 -50
-45 -6 3 2 17 18 30 31 28 32 28 32 15z m10 -54 c0 -3 -4 -8 -10 -11 -5 -3
-10 -1 -10 4 0 6 5 11 10 11 6 0 10 -2 10 -4z m-39 -29 c-13 -13 -26 -3 -16
12 3 6 11 8 17 5 6 -4 6 -10 -1 -17z m154 -7 c8 -13 -15 -13 -35 0 -12 8 -11
10 7 10 12 0 25 -4 28 -10z m-158 -37 c-8 -7 -37 9 -31 19 3 5 12 4 20 -3 8
-6 13 -14 11 -16z m51 6 c17 -27 5 -40 -14 -15 -8 11 -14 23 -14 28 0 15 15 8
28 -13z m56 12 c4 -5 3 -16 0 -25 -6 -15 -8 -15 -20 1 -7 10 -14 21 -14 26 0
10 28 9 34 -2z m-80 -57 c4 -10 1 -14 -6 -12 -15 5 -23 28 -10 28 5 0 13 -7
16 -16z m122 -4 c-1 -28 -18 -30 -22 -2 -3 13 1 22 10 22 7 0 13 -9 12 -20z
m-126 -40 c0 -5 -7 -10 -15 -10 -8 0 -15 5 -15 10 0 6 7 10 15 10 8 0 15 -4
15 -10z m188 -38 c0 -14 5 -28 11 -30 14 -5 15 -42 1 -42 -5 0 -10 5 -10 11 0
7 -14 10 -36 7 -32 -4 -34 -3 -18 9 10 7 21 13 25 13 4 0 10 7 13 16 5 13 1
15 -21 10 -18 -4 -23 -3 -14 2 9 7 10 12 2 16 -21 13 -11 23 18 18 23 -3 29
-9 29 -30z m-118 -53 c0 -5 -4 -9 -10 -9 -5 0 -10 7 -10 16 0 8 5 12 10 9 6
-3 10 -10 10 -16z m-103 -21 c-3 -7 -5 -2 -5 12 0 14 2 19 5 13 2 -7 2 -19 0
-25z m403 -14 c0 -19 -4 -33 -9 -30 -5 4 -8 14 -6 24 2 9 4 23 4 30 2 28 11 9
11 -24z m-220 -4 c11 -7 12 -12 4 -20 -8 -8 -14 -8 -18 -1 -4 5 -14 7 -24 4
-15 -6 -15 -5 -3 10 15 19 20 20 41 7z m55 -20 c-3 -5 -10 -10 -16 -10 -5 0
-9 5 -9 10 0 6 7 10 16 10 8 0 12 -4 9 -10z m-165 -55 c0 -2 -9 -3 -19 -2 -11
0 -17 5 -15 9 3 4 0 8 -5 8 -6 0 -11 10 -11 21 0 21 1 21 25 -5 14 -15 25 -29
25 -31z m288 20 c20 3 43 2 51 -3 19 -14 -1 -47 -39 -64 -16 -7 -30 -16 -30
-20 0 -5 -6 -8 -12 -8 -17 -1 -58 -35 -58 -49 0 -6 11 -11 25 -11 29 0 32 -8
8 -26 -24 -18 -44 -17 -37 1 4 8 -1 17 -10 21 -13 5 -14 9 -5 20 7 9 7 14 1
14 -5 0 -12 8 -14 18 -4 15 0 17 26 15 17 -1 41 3 54 9 23 12 30 38 10 38 -17
0 2 17 27 24 11 3 1 4 -22 2 -47 -4 -64 7 -36 23 11 6 19 6 21 0 2 -5 20 -7
40 -4z m-243 -15 c-27 -12 -43 -12 -25 0 8 5 22 9 30 9 10 0 8 -3 -5 -9z m94
-3 c-2 -1 -12 -9 -21 -16 -15 -12 -18 -11 -18 3 0 10 8 16 22 16 12 0 19 -1
17 -3z m39 -22 c-3 -3 -9 2 -12 12 -6 14 -5 15 5 6 7 -7 10 -15 7 -18z m70
-13 c2 -7 -3 -12 -12 -12 -9 0 -16 7 -16 16 0 17 22 14 28 -4z m-203 -12 c3
-5 1 -10 -4 -10 -6 0 -11 5 -11 10 0 6 2 10 4 10 3 0 8 -4 11 -10z m-21 -75
c-7 -18 -8 -18 -14 1 -9 23 -1 39 11 27 6 -6 6 -18 3 -28z m100 -28 c7 -5 3
-7 -9 -5 -26 3 -45 -9 -39 -26 3 -8 -3 -16 -15 -19 -31 -8 -32 3 -2 32 15 14
32 35 36 46 l8 20 5 -20 c2 -11 9 -24 16 -28z m206 23 c0 -5 -4 -10 -10 -10
-5 0 -10 5 -10 10 0 6 5 10 10 10 6 0 10 -4 10 -10z m-40 -9 c0 -17 -12 -41
-21 -41 -5 0 -9 11 -9 25 0 16 6 25 15 25 8 0 15 -4 15 -9z m75 -59 c-3 -8 0
-19 7 -24 10 -6 10 -10 -2 -18 -20 -13 -33 -13 -25 0 4 7 -2 9 -19 4 -20 -5
-26 -2 -26 10 0 9 -8 16 -21 16 -11 0 -17 5 -14 10 4 6 10 8 15 5 5 -3 14 3
20 14 9 17 14 18 41 9 21 -7 28 -15 24 -26z m-155 -18 c0 -12 7 -15 31 -12 22
4 34 0 42 -14 7 -10 17 -18 24 -18 7 0 13 -4 13 -10 0 -15 -31 -12 -44 4 -13
18 -60 25 -64 11 -1 -5 6 -11 17 -13 10 -2 21 -13 25 -25 7 -28 -1 -35 -17
-13 -12 16 -14 16 -26 2 -8 -9 -20 -16 -29 -16 -12 0 -12 4 4 21 18 20 18 20
-11 17 -22 -2 -30 2 -33 16 -2 10 3 23 12 28 9 5 16 16 16 23 0 8 9 15 20 15
12 0 20 -7 20 -16z m-80 -4 c0 -5 -6 -10 -14 -10 -8 0 -18 5 -21 10 -3 6 3 10
14 10 12 0 21 -4 21 -10z m-150 -52 c0 -16 -3 -19 -11 -11 -6 6 -8 16 -5 22
11 17 16 13 16 -11z m405 -18 c3 -6 -5 -10 -19 -10 -14 0 -28 5 -31 10 -3 6 5
10 19 10 14 0 28 -4 31 -10z m-244 -16 c12 -14 11 -16 -5 -13 -11 2 -21 10
-24 17 -5 17 13 15 29 -4z m188 -13 c7 -5 9 -11 4 -14 -4 -3 -17 1 -28 9 -21
16 0 20 24 5z m-172 -35 c-9 -18 -15 -22 -25 -14 -14 12 1 38 23 38 10 0 11
-5 2 -24z m58 -7 c11 -16 -4 -59 -20 -59 -17 0 -20 16 -4 26 6 3 9 15 6 25 -5
20 7 26 18 8z m-105 -23 c0 -9 -40 -13 -46 -5 -3 5 6 9 20 9 14 0 26 -2 26 -4z
m-125 -96 c3 -5 2 -10 -4 -10 -5 0 -13 5 -16 10 -3 6 -2 10 4 10 5 0 13 -4 16
-10z"/>
<path d="M4626 331 c-3 -5 1 -11 9 -15 15 -6 29 7 18 18 -9 9 -21 8 -27 -3z"/>
<path d="M6866 1125 c-5 -14 -9 -16 -18 -7 -18 18 -28 14 -28 -9 0 -14 -10
-24 -31 -31 l-32 -11 24 -19 c17 -14 20 -21 11 -25 -10 -4 -9 -9 4 -24 9 -11
14 -22 11 -26 -4 -3 -1 -13 6 -21 10 -12 9 -16 -1 -20 -9 -3 -7 -9 8 -19 16
-12 19 -18 10 -27 -8 -8 -14 -7 -21 7 -11 19 -39 23 -39 6 0 -6 7 -9 15 -5 10
4 15 -1 15 -14 0 -23 9 -25 34 -7 17 12 22 40 14 81 -1 10 3 21 11 24 10 3 12
0 7 -13 -4 -11 0 -22 11 -31 21 -16 37 -18 28 -4 -3 6 1 10 10 10 13 0 14 -4
5 -20 -8 -15 -17 -19 -32 -14 -16 5 -20 3 -15 -9 3 -8 0 -20 -6 -26 -8 -8 -8
-14 1 -23 9 -9 13 -7 18 5 3 9 10 15 15 12 4 -3 16 9 25 26 9 18 19 28 23 23
3 -5 15 -11 26 -12 29 -5 30 -9 15 -37 -13 -24 -11 -28 19 -55 27 -25 29 -31
16 -36 -10 -4 -21 1 -30 12 -7 11 -17 15 -21 11 -5 -4 -2 -13 6 -18 12 -8 10
-10 -7 -6 -42 9 -33 -10 12 -29 47 -19 55 -28 30 -38 -22 -8 -18 -26 5 -26 23
0 26 -10 8 -28 -8 -8 -9 -15 -3 -20 6 -4 12 -16 13 -27 6 -29 12 -32 19 -7 3
13 16 24 32 28 51 11 57 14 42 23 -20 13 -4 31 27 31 25 -1 26 -2 8 -15 -10
-7 -15 -18 -11 -24 3 -6 0 -11 -8 -11 -20 0 -26 -20 -16 -47 8 -23 49 -33 49
-12 0 5 -4 8 -9 4 -12 -7 -24 12 -16 25 5 8 11 7 21 -1 22 -18 29 -3 8 18 -15
15 -15 18 -2 21 13 3 15 36 17 250 1 228 0 245 -14 225 -21 -30 -37 -29 -30 0
6 21 3 23 -34 25 -26 2 -41 -2 -41 -9 0 -11 -30 -8 -98 8 -19 4 -22 1 -20 -18
3 -20 -2 -25 -26 -27 -29 -4 -29 -4 -13 21 l17 26 -28 -15 c-24 -12 -28 -12
-33 3 -5 15 -6 15 -13 -2z m249 -15 c-3 -5 -11 -10 -16 -10 -6 0 -7 5 -4 10 3
6 11 10 16 10 6 0 7 -4 4 -10z m-238 -26 c-3 -3 -12 -4 -19 -1 -8 3 -5 6 6 6
11 1 17 -2 13 -5z m90 -19 c8 -9 13 -19 10 -22 -6 -5 -37 21 -37 31 0 10 11 6
27 -9z m-137 -15 c-19 -13 -30 -13 -30 0 0 6 10 10 23 10 18 0 19 -2 7 -10z
m59 -27 c0 -33 -1 -35 -9 -15 -8 20 -4 52 6 52 2 0 4 -17 3 -37z m51 5 c0 -16
-3 -19 -11 -11 -6 6 -8 16 -5 22 11 17 16 13 16 -11z m-96 -14 c5 -12 2 -15
-10 -10 -8 3 -20 6 -25 6 -6 0 -7 5 -4 10 10 15 32 12 39 -6z m136 -10 c0 -8
9 -14 20 -14 32 0 23 -17 -12 -24 -39 -8 -42 -5 -33 33 6 30 25 34 25 5z m-46
-45 c-3 -5 -10 -7 -15 -3 -5 3 -7 10 -3 15 3 5 10 7 15 3 5 -3 7 -10 3 -15z
m221 11 c3 -5 -1 -10 -9 -10 -9 0 -16 5 -16 10 0 6 4 10 9 10 6 0 13 -4 16
-10z m-137 -42 c7 -7 12 -17 12 -22 0 -6 -5 -5 -12 2 -7 7 -20 12 -31 12 -10
0 -15 5 -12 10 8 14 28 13 43 -2z m95 -5 c-7 -2 -19 -2 -25 0 -7 3 -2 5 12 5
14 0 19 -2 13 -5z m32 -37 c12 5 16 3 13 -6 -2 -7 -14 -17 -26 -21 -19 -7 -22
-5 -22 19 0 18 3 23 8 14 5 -7 16 -10 27 -6z m-61 -38 c13 -21 1 -35 -16 -20
-7 5 -24 12 -37 14 -39 5 -35 23 5 23 24 0 41 -6 48 -17z m36 -48 c0 -5 -6
-10 -14 -10 -8 0 -18 5 -21 10 -3 6 3 10 14 10 12 0 21 -4 21 -10z m0 -55 c0
-8 -2 -15 -4 -15 -2 0 -6 7 -10 15 -3 8 -1 15 4 15 6 0 10 -7 10 -15z m-60
-101 c0 -8 -5 -12 -10 -9 -6 4 -8 11 -5 16 9 14 15 11 15 -7z"/>
<path d="M2342 1111 c-106 -6 -114 -8 -132 -31 -35 -45 -28 -50 60 -43 76 6
80 5 80 -15 0 -31 16 -35 37 -10 16 21 26 23 103 21 47 -1 87 -2 89 -3 2 0 -1
-6 -6 -12 -6 -7 -13 -22 -17 -32 -6 -17 -5 -17 11 -5 38 30 40 36 35 117 -2
25 -11 25 -260 13z"/>
<path d="M6770 1110 c0 -5 5 -10 11 -10 5 0 7 5 4 10 -3 6 -8 10 -11 10 -2 0
-4 -4 -4 -10z"/>
<path d="M5978 1093 c7 -3 16 -2 19 1 4 3 -2 6 -13 5 -11 0 -14 -3 -6 -6z"/>
<path d="M6317 1093 c-4 -3 -7 -11 -7 -17 0 -6 5 -5 12 2 6 6 9 14 7 17 -3 3
-9 2 -12 -2z"/>
<path d="M6440 1090 c0 -5 5 -10 10 -10 6 0 10 5 10 10 0 6 -4 10 -10 10 -5 0
-10 -4 -10 -10z"/>
<path d="M4890 1076 c0 -9 5 -16 10 -16 6 0 10 4 10 9 0 6 -4 13 -10 16 -5 3
-10 -1 -10 -9z"/>
<path d="M5285 1081 c-3 -5 -1 -12 5 -16 12 -7 30 2 30 16 0 12 -27 12 -35 0z"/>
<path d="M5546 1075 c-3 -9 0 -15 9 -15 8 0 15 7 15 15 0 8 -4 15 -9 15 -5 0
-11 -7 -15 -15z"/>
<path d="M5090 1071 c0 -5 9 -11 21 -14 16 -4 18 -3 8 9 -13 16 -29 19 -29 5z"/>
<path d="M5165 1070 c-3 -5 1 -10 9 -10 9 0 16 5 16 10 0 6 -4 10 -9 10 -6 0
-13 -4 -16 -10z"/>
<path d="M5498 1073 c7 -3 16 -2 19 1 4 3 -2 6 -13 5 -11 0 -14 -3 -6 -6z"/>
<path d="M1360 1063 c-153 -6 -619 -24 -880 -33 -162 -6 -337 -13 -388 -16
l-92 -6 0 -469 1 -469 29 0 c16 0 35 7 44 15 8 8 19 15 24 15 5 0 15 7 22 15
15 18 120 21 120 4 0 -8 4 -8 15 1 8 6 19 9 25 5 6 -3 43 -9 83 -11 39 -3 90
-10 112 -16 22 -6 76 -12 120 -13 159 -6 187 -13 218 -51 l28 -34 102 0 102 1
33 57 c28 47 31 61 23 80 -14 30 -14 82 0 82 6 0 13 -9 16 -20 10 -38 33 -14
33 35 0 27 45 61 63 47 7 -5 42 -7 82 -3 l70 7 -40 12 c-55 16 -150 15 -185
-3 -38 -20 -70 -62 -70 -93 0 -17 -4 -22 -9 -17 -14 14 4 88 32 133 13 20 43
78 66 127 69 142 92 186 128 246 18 30 36 71 39 91 6 35 6 35 -42 47 -86 22
-186 26 -220 8 -51 -26 -143 -106 -185 -161 -21 -28 -52 -66 -67 -85 -48 -60
-72 -121 -73 -186 -1 -69 -15 -184 -18 -142 -2 39 -20 33 -39 -13 -18 -42 -32
-52 -32 -21 0 25 -47 74 -65 67 -8 -3 -15 -1 -15 5 0 6 -4 8 -8 5 -5 -3 -24 5
-43 17 -19 12 -45 22 -59 22 -20 0 -25 5 -23 23 3 19 -1 22 -25 20 -22 -2 -26
1 -24 17 2 11 3 29 4 40 0 11 2 14 5 7 3 -6 9 -9 14 -6 6 3 17 0 25 -7 12 -10
18 -9 32 5 16 16 16 18 -2 31 -17 13 -18 18 -7 39 16 29 6 49 -20 41 -13 -4
-19 -2 -19 9 0 30 -17 24 -36 -12 -17 -31 -26 -37 -57 -40 -21 -2 -37 1 -37 7
0 6 6 11 13 11 6 0 4 5 -6 11 -27 16 -37 2 -30 -46 4 -29 2 -45 -5 -45 -6 0
-13 6 -16 13 -3 6 -3 2 -1 -9 7 -26 -28 -39 -46 -18 -6 8 -24 14 -39 14 -22 0
-30 7 -42 39 -18 44 -8 88 30 136 l22 28 -21 33 c-32 52 -7 104 50 104 23 0
33 7 45 30 8 17 11 30 8 30 -4 0 -16 14 -27 30 -21 32 -45 40 -45 15 0 -8 -4
-15 -10 -15 -5 0 -10 -7 -10 -15 0 -8 7 -15 16 -15 8 0 12 5 9 10 -3 6 1 10 9
10 9 0 16 -4 16 -10 0 -5 7 -10 16 -10 27 0 9 -25 -21 -28 -18 -2 -31 2 -37
12 -10 18 -38 22 -38 6 0 -17 -28 -11 -39 8 -9 15 -10 15 -11 0 0 -13 -4 -14
-24 -5 -20 10 -22 15 -13 34 11 24 48 40 67 28 5 -3 7 -11 4 -17 -4 -7 -2 -8
4 -4 14 9 -6 46 -25 46 -7 0 -13 5 -13 10 0 17 52 11 66 -7 11 -15 13 -15 14
-3 0 23 93 43 126 28 19 -9 27 -9 32 -1 5 8 80 14 222 18 118 4 253 13 300 21
72 11 135 14 370 16 14 0 49 4 78 9 35 6 60 5 78 -3 21 -10 28 -8 47 10 28 29
15 38 -53 35z m-1330 -123 c0 -5 -5 -10 -11 -10 -5 0 -7 5 -4 10 3 6 8 10 11
10 2 0 4 -4 4 -10z"/>
<path d="M6455 1059 c-4 -6 -5 -12 -2 -15 7 -7 37 7 37 17 0 13 -27 11 -35 -2z"/>
<path d="M6513 1055 c-9 -25 4 -29 17 -6 7 15 7 21 0 21 -6 0 -13 -7 -17 -15z"/>
<path d="M4850 1045 c0 -8 -4 -15 -10 -15 -5 0 -10 -4 -10 -10 0 -16 27 -11
34 6 9 23 7 34 -4 34 -5 0 -10 -7 -10 -15z"/>
<path d="M6215 1050 c-3 -5 1 -10 9 -10 9 0 16 5 16 10 0 6 -4 10 -9 10 -6 0
-13 -4 -16 -10z"/>
<path d="M5242 1030 c9 -13 14 -16 17 -8 2 7 9 16 15 20 6 4 -1 8 -17 8 -25 0
-26 -2 -15 -20z"/>
<path d="M6603 1043 c9 -2 23 -2 30 0 6 3 -1 5 -18 5 -16 0 -22 -2 -12 -5z"/>
<path d="M6260 1028 c1 -18 25 -48 39 -48 8 0 10 8 5 23 -10 32 -44 52 -44 25z"/>
<path d="M4895 1020 c3 -5 8 -10 11 -10 2 0 4 5 4 10 0 6 -5 10 -11 10 -5 0
-7 -4 -4 -10z"/>
<path d="M5025 1020 c-3 -5 -1 -10 4 -10 6 0 11 5 11 10 0 6 -2 10 -4 10 -3 0
-8 -4 -11 -10z"/>
<path d="M5207 1016 c-8 -19 15 -45 41 -46 20 0 14 21 -7 27 -11 3 -21 12 -23
22 -3 14 -5 13 -11 -3z"/>
<path d="M6135 1020 c-3 -5 1 -10 10 -10 9 0 13 5 10 10 -3 6 -8 10 -10 10 -2
0 -7 -4 -10 -10z"/>
<path d="M6400 1026 c0 -2 7 -7 16 -10 8 -3 12 -2 9 4 -6 10 -25 14 -25 6z"/>
<path d="M6640 1022 c0 -11 48 -13 55 -2 4 6 -7 10 -24 10 -17 0 -31 -4 -31
-8z"/>
<path d="M2249 998 c11 -29 36 -38 29 -10 -3 12 -1 23 6 26 6 2 -1 5 -16 5
-24 1 -26 -2 -19 -21z"/>
<path d="M4920 1010 c0 -5 -9 -10 -20 -10 -11 0 -20 -5 -20 -10 0 -7 14 -8 38
-4 44 8 46 9 37 23 -8 14 -35 14 -35 1z"/>
<path d="M5081 1011 c-9 -6 -10 -11 -2 -15 6 -4 15 -4 21 -1 15 9 53 -31 47
-49 -5 -12 -2 -13 16 -5 14 6 22 19 22 34 0 18 -3 21 -13 13 -9 -8 -21 -5 -42
10 -33 25 -31 24 -49 13z"/>
<path d="M6475 1010 c3 -5 8 -10 11 -10 2 0 4 5 4 10 0 6 -5 10 -11 10 -5 0
-7 -4 -4 -10z"/>
<path d="M6555 1010 c-4 -6 9 -10 32 -10 28 0 34 3 23 10 -20 13 -47 13 -55 0z"/>
<path d="M6735 1009 c-11 -17 1 -21 15 -4 8 9 8 15 2 15 -6 0 -14 -5 -17 -11z"/>
<path d="M5835 1000 c3 -5 8 -10 11 -10 2 0 4 5 4 10 0 6 -5 10 -11 10 -5 0
-7 -4 -4 -10z"/>
<path d="M4800 984 c0 -8 5 -12 10 -9 6 3 10 10 10 16 0 5 -4 9 -10 9 -5 0
-10 -7 -10 -16z"/>
<path d="M4850 990 c0 -5 5 -10 10 -10 6 0 10 5 10 10 0 6 -4 10 -10 10 -5 0
-10 -4 -10 -10z"/>
<path d="M6115 990 c3 -5 8 -10 11 -10 2 0 4 5 4 10 0 6 -5 10 -11 10 -5 0 -7
-4 -4 -10z"/>
<path d="M2430 980 c0 -5 5 -10 10 -10 6 0 10 5 10 10 0 6 -4 10 -10 10 -5 0
-10 -4 -10 -10z"/>
<path d="M5441 974 c0 -11 3 -14 6 -6 3 7 2 16 -1 19 -3 4 -6 -2 -5 -13z"/>
<path d="M6340 977 c0 -21 12 -28 27 -16 19 16 16 29 -7 29 -11 0 -20 -6 -20
-13z"/>
<path d="M6410 980 c0 -5 5 -10 10 -10 6 0 10 5 10 10 0 6 -4 10 -10 10 -5 0
-10 -4 -10 -10z"/>
<path d="M6470 980 c0 -4 9 -10 21 -13 12 -3 19 -1 17 5 -5 13 -38 20 -38 8z"/>
<path d="M6618 983 c7 -3 16 -2 19 1 4 3 -2 6 -13 5 -11 0 -14 -3 -6 -6z"/>
<path d="M6661 973 c-7 -8 -10 -17 -7 -20 9 -9 29 13 25 25 -2 6 -10 3 -18 -5z"/>
<path d="M4580 964 c0 -15 22 -44 34 -44 8 0 16 -7 20 -15 6 -16 36 -21 36 -6
0 13 -49 43 -60 36 -6 -3 -10 1 -10 10 0 12 6 14 26 9 19 -5 25 -4 20 5 -7 11
-66 16 -66 5z"/>
<path d="M4750 955 c0 -8 5 -15 10 -15 6 0 10 7 10 15 0 8 -4 15 -10 15 -5 0
-10 -7 -10 -15z"/>
<path d="M4957 951 c3 -12 1 -21 -6 -21 -6 0 -11 -7 -11 -16 0 -11 6 -14 23
-9 26 8 47 25 30 25 -6 0 -10 8 -9 17 0 10 -7 19 -16 21 -12 2 -15 -2 -11 -17z"/>
<path d="M6200 956 c0 -9 5 -16 10 -16 6 0 10 4 10 9 0 6 -4 13 -10 16 -5 3
-10 -1 -10 -9z"/>
<path d="M6562 956 c1 -10 8 -17 13 -17 15 1 12 24 -3 29 -9 3 -13 -2 -10 -12z"/>
<path d="M4790 955 c0 -14 12 -28 35 -41 11 -6 20 -21 20 -33 1 -26 17 -29 25
-5 7 20 -21 54 -45 54 -7 0 -19 8 -24 18 -6 9 -10 13 -11 7z"/>
<path d="M6115 950 c-3 -5 1 -10 9 -10 9 0 16 5 16 10 0 6 -4 10 -9 10 -6 0
-13 -4 -16 -10z"/>
<path d="M6427 953 c-4 -3 -7 -11 -7 -17 0 -6 5 -5 12 2 6 6 9 14 7 17 -3 3
-9 2 -12 -2z"/>
<path d="M6613 925 c-1 -43 14 -55 26 -22 6 14 16 28 23 31 7 3 2 3 -11 0 -19
-5 -23 -3 -18 10 4 9 1 16 -6 16 -8 0 -13 -14 -14 -35z"/>
<path d="M6760 940 c0 -5 5 -10 11 -10 5 0 7 5 4 10 -3 6 -8 10 -11 10 -2 0
-4 -4 -4 -10z"/>
<path d="M4698 928 c30 -15 28 -71 -3 -77 -18 -3 -34 -18 -35 -31 0 -3 25 -7
55 -8 59 -2 64 1 39 25 -13 14 -17 14 -24 2 -5 -7 -12 -10 -16 -6 -4 4 1 14
12 21 10 8 21 10 22 5 2 -5 11 -9 19 -9 13 0 13 3 3 15 -7 9 -10 25 -6 41 5
19 3 25 -6 21 -7 -2 -12 -14 -11 -26 2 -11 -1 -21 -6 -21 -6 0 -11 12 -13 28
-2 21 -9 28 -28 29 l-25 3 23 -12z"/>
<path d="M5265 930 c-3 -5 -1 -10 4 -10 6 0 11 5 11 10 0 6 -2 10 -4 10 -3 0
-8 -4 -11 -10z"/>
<path d="M343 923 c-31 -6 -29 -20 2 -20 15 0 25 5 25 13 0 8 -1 13 -2 13 -2
-1 -13 -4 -25 -6z"/>
<path d="M5078 923 c7 -3 16 -2 19 1 4 3 -2 6 -13 5 -11 0 -14 -3 -6 -6z"/>
<path d="M5172 919 c2 -6 8 -10 13 -10 5 0 11 4 13 10 2 6 -4 11 -13 11 -9 0
-15 -5 -13 -11z"/>
<path d="M6458 923 c6 -2 18 -2 25 0 6 3 1 5 -13 5 -14 0 -19 -2 -12 -5z"/>
<path d="M5011 917 c2 -1 12 -9 22 -16 15 -12 17 -12 11 3 -3 9 -13 16 -22 16
-8 0 -13 -1 -11 -3z"/>
<path d="M6270 890 c0 -5 5 -10 11 -10 5 0 7 5 4 10 -3 6 -8 10 -11 10 -2 0
-4 -4 -4 -10z"/>
<path d="M6316 884 c-5 -14 -4 -15 9 -4 17 14 19 20 6 20 -5 0 -12 -7 -15 -16z"/>
<path d="M6512 891 c4 -13 18 -16 19 -4 0 4 -5 9 -11 12 -7 2 -11 -2 -8 -8z"/>
<path d="M4800 881 c0 -5 7 -12 16 -15 14 -5 15 -4 4 9 -14 17 -20 19 -20 6z"/>
<path d="M4898 883 c6 -2 18 -2 25 0 6 3 1 5 -13 5 -14 0 -19 -2 -12 -5z"/>
<path d="M5105 880 c3 -5 10 -10 16 -10 5 0 9 5 9 10 0 6 -7 10 -16 10 -8 0
-12 -4 -9 -10z"/>
<path d="M6345 870 c-4 -6 5 -10 20 -10 15 0 24 4 20 10 -3 6 -12 10 -20 10
-8 0 -17 -4 -20 -10z"/>
<path d="M6705 861 c-3 -5 -1 -12 5 -16 5 -3 10 1 10 9 0 18 -6 21 -15 7z"/>
<path d="M6940 860 c0 -5 7 -10 16 -10 8 0 12 5 9 10 -3 6 -10 10 -16 10 -5 0
-9 -4 -9 -10z"/>
<path d="M5040 850 c0 -5 7 -10 16 -10 8 0 12 5 9 10 -3 6 -10 10 -16 10 -5 0
-9 -4 -9 -10z"/>
<path d="M5111 829 c-13 -17 -20 -33 -16 -37 4 -4 10 -2 12 5 2 6 13 21 24 34
21 24 23 29 12 28 -5 0 -19 -14 -32 -30z"/>
<path d="M6555 850 c-3 -5 -1 -10 4 -10 6 0 11 5 11 10 0 6 -2 10 -4 10 -3 0
-8 -4 -11 -10z"/>
<path d="M4810 840 c0 -5 7 -10 15 -10 8 0 15 5 15 10 0 6 -7 10 -15 10 -8 0
-15 -4 -15 -10z"/>
<path d="M4910 838 c-16 -7 -20 -12 -12 -15 8 -3 21 2 30 11 19 18 17 19 -18
4z"/>
<path d="M6378 843 c6 -2 10 -9 7 -13 -12 -19 13 -18 30 0 18 20 17 20 -16 19
-19 0 -28 -3 -21 -6z"/>
<path d="M6450 840 c0 -5 5 -10 11 -10 5 0 7 5 4 10 -3 6 -8 10 -11 10 -2 0
-4 -4 -4 -10z"/>
<path d="M6315 830 c-3 -6 1 -7 9 -4 18 7 21 14 7 14 -6 0 -13 -4 -16 -10z"/>
<path d="M6798 833 c7 -3 16 -2 19 1 4 3 -2 6 -13 5 -11 0 -14 -3 -6 -6z"/>
<path d="M301 817 c-16 -16 -14 -68 5 -88 8 -9 14 -30 12 -45 -3 -26 -4 -27
-20 -11 -24 24 -42 22 -28 -2 14 -27 13 -58 -2 -65 -7 -3 0 -3 17 0 33 6 87
62 80 82 -3 9 1 11 14 7 22 -7 30 15 23 63 -4 28 -6 30 -16 17 -14 -19 -46
-10 -46 12 0 24 -25 44 -39 30z"/>
<path d="M6874 815 c7 -28 -39 -84 -55 -68 -8 8 -18 9 -35 1 -26 -12 -34 -31
-8 -21 10 4 17 -1 21 -15 2 -11 13 -22 24 -25 10 -3 19 -10 19 -15 0 -13 -42
-3 -53 12 -4 6 -5 -1 -1 -16 5 -21 2 -28 -9 -28 -8 0 -17 -7 -21 -15 -6 -17 2
-19 24 -5 8 5 19 5 25 1 5 -5 26 -12 45 -15 26 -5 31 -4 20 3 -21 15 -4 14 19
-1 10 -6 27 -8 37 -4 18 7 18 8 2 20 -10 7 -18 20 -18 29 0 8 -7 18 -16 21
-13 5 -14 9 -5 20 9 10 8 15 -2 19 -8 3 -17 17 -19 31 -5 23 -2 26 22 26 29 0
66 32 55 49 -9 16 -35 13 -35 -4 0 -20 -17 -19 -30 3 -10 15 -10 15 -6 -3z
m-14 -105 c0 -5 -5 -10 -11 -10 -5 0 -7 5 -4 10 3 6 8 10 11 10 2 0 4 -4 4
-10z m20 -70 c-20 -12 -33 -1 -19 16 9 11 15 12 23 4 8 -8 7 -13 -4 -20z m-54
-17 c-10 -10 -19 5 -10 18 6 11 8 11 12 0 2 -7 1 -15 -2 -18z"/>
<path d="M5980 810 c0 -6 7 -10 15 -10 8 0 15 2 15 4 0 2 -7 6 -15 10 -8 3
-15 1 -15 -4z"/>
<path d="M5565 801 c-3 -5 -1 -12 5 -16 5 -3 10 1 10 9 0 18 -6 21 -15 7z"/>
<path d="M5920 800 c0 -5 5 -10 11 -10 5 0 7 5 4 10 -3 6 -8 10 -11 10 -2 0
-4 -4 -4 -10z"/>
<path d="M6825 800 c-3 -5 -1 -10 4 -10 6 0 11 5 11 10 0 6 -2 10 -4 10 -3 0
-8 -4 -11 -10z"/>
<path d="M6150 785 c0 -8 4 -15 10 -15 5 0 7 7 4 15 -4 8 -8 15 -10 15 -2 0
-4 -7 -4 -15z"/>
<path d="M4709 779 c-11 -7 -11 -9 3 -9 9 0 18 -5 20 -12 3 -8 9 -8 22 -1 15
8 15 10 -7 20 -14 7 -29 8 -38 2z"/>
<path d="M6580 775 c0 -8 4 -15 10 -15 5 0 7 7 4 15 -4 8 -8 15 -10 15 -2 0
-4 -7 -4 -15z"/>
<path d="M6745 781 c3 -5 -1 -11 -7 -14 -7 -2 -10 -8 -5 -12 4 -5 13 -3 19 3
7 7 23 12 37 12 31 0 25 5 -17 13 -19 4 -31 3 -27 -2z"/>
<path d="M6550 759 c0 -5 5 -7 10 -4 6 3 10 8 10 11 0 2 -4 4 -10 4 -5 0 -10
-5 -10 -11z"/>
<path d="M6430 749 c0 -5 5 -7 10 -4 6 3 10 8 10 11 0 2 -4 4 -10 4 -5 0 -10
-5 -10 -11z"/>
<path d="M4940 741 c0 -5 7 -11 15 -15 9 -3 15 0 15 9 0 8 -7 15 -15 15 -8 0
-15 -4 -15 -9z"/>
<path d="M6936 731 c-12 -13 -14 -21 -6 -26 14 -8 15 -7 24 23 9 27 4 28 -18
3z"/>
<path d="M4705 730 c-4 -6 -5 -10 -3 -11 25 -6 38 -6 38 1 0 12 -29 20 -35 10z"/>
<path d="M6250 732 c0 -12 19 -26 26 -19 2 2 -2 10 -11 17 -9 8 -15 8 -15 2z"/>
<path d="M6670 720 c0 -5 11 -9 24 -8 14 1 22 6 20 10 -7 12 -44 10 -44 -2z"/>
<path d="M4820 701 c0 -5 7 -11 14 -14 10 -4 13 -1 9 9 -6 15 -23 19 -23 5z"/>
<path d="M5330 700 c0 -5 5 -10 11 -10 5 0 7 5 4 10 -3 6 -8 10 -11 10 -2 0
-4 -4 -4 -10z"/>
<path d="M6115 700 c3 -5 8 -10 11 -10 2 0 4 5 4 10 0 6 -5 10 -11 10 -5 0 -7
-4 -4 -10z"/>
<path d="M6355 700 c-3 -5 -1 -10 4 -10 6 0 11 5 11 10 0 6 -2 10 -4 10 -3 0
-8 -4 -11 -10z"/>
<path d="M4683 686 c-10 -11 -9 -15 2 -20 8 -3 15 -14 15 -25 0 -12 9 -20 25
-23 26 -5 35 6 11 15 -7 3 -16 19 -19 36 -7 34 -15 38 -34 17z"/>
<path d="M6738 693 c7 -3 16 -2 19 1 4 3 -2 6 -13 5 -11 0 -14 -3 -6 -6z"/>
<path d="M4792 676 c7 -8 15 -12 17 -11 5 6 -10 25 -20 25 -5 0 -4 -6 3 -14z"/>
<path d="M6622 673 c1 -10 -1 -25 -6 -33 -4 -8 2 -4 13 9 20 22 20 41 0 41 -6
0 -9 -8 -7 -17z"/>
<path d="M430 665 c0 -8 5 -15 10 -15 6 0 10 7 10 15 0 8 -4 15 -10 15 -5 0
-10 -7 -10 -15z"/>
<path d="M4750 665 c0 -8 5 -15 10 -15 6 0 10 7 10 15 0 8 -4 15 -10 15 -5 0
-10 -7 -10 -15z"/>
<path d="M5960 670 c0 -5 5 -10 10 -10 6 0 10 5 10 10 0 6 -4 10 -10 10 -5 0
-10 -4 -10 -10z"/>
<path d="M5065 660 c3 -5 8 -10 11 -10 2 0 4 5 4 10 0 6 -5 10 -11 10 -5 0 -7
-4 -4 -10z"/>
<path d="M6470 660 c0 -5 5 -10 10 -10 6 0 10 5 10 10 0 6 -4 10 -10 10 -5 0
-10 -4 -10 -10z"/>
<path d="M6690 660 c0 -5 -10 -11 -22 -11 -17 -1 -19 -2 -5 -6 20 -5 22 -14 5
-32 -11 -10 -10 -11 4 -6 10 4 24 20 32 36 12 25 12 29 0 29 -8 0 -14 -4 -14
-10z"/>
<path d="M1852 648 c-5 -7 -13 -24 -17 -38 -7 -23 -7 -23 9 -7 9 9 24 21 33
25 9 5 13 14 9 21 -9 14 -21 14 -34 -1z"/>
<path d="M4908 635 c-3 -15 -1 -25 6 -25 6 0 13 11 14 25 1 14 -2 25 -7 25 -5
0 -11 -11 -13 -25z"/>
<path d="M6930 649 c0 -5 5 -7 10 -4 6 3 10 8 10 11 0 2 -4 4 -10 4 -5 0 -10
-5 -10 -11z"/>
<path d="M4850 635 c0 -8 5 -15 10 -15 6 0 10 7 10 15 0 8 -4 15 -10 15 -5 0
-10 -7 -10 -15z"/>
<path d="M204 615 c-9 -21 7 -37 25 -25 12 7 12 11 -2 25 -16 15 -18 15 -23 0z"/>
<path d="M5120 620 c0 -13 20 -13 40 0 12 8 9 10 -12 10 -16 0 -28 -4 -28 -10z"/>
<path d="M4795 611 c-3 -5 -1 -12 5 -16 5 -3 10 1 10 9 0 18 -6 21 -15 7z"/>
<path d="M5007 614 c-8 -8 1 -24 14 -24 5 0 9 7 9 15 0 15 -12 20 -23 9z"/>
<path d="M5055 610 c-3 -5 1 -10 10 -10 9 0 13 5 10 10 -3 6 -8 10 -10 10 -2
0 -7 -4 -10 -10z"/>
<path d="M6705 611 c-3 -5 -2 -12 3 -15 5 -3 9 1 9 9 0 17 -3 19 -12 6z"/>
<path d="M6954 605 c-16 -12 -17 -14 -3 -15 9 0 19 7 23 15 7 19 5 19 -20 0z"/>
<path d="M7000 610 c0 -5 5 -10 10 -10 6 0 10 5 10 10 0 6 -4 10 -10 10 -5 0
-10 -4 -10 -10z"/>
<path d="M7090 605 c-10 -12 -10 -15 4 -15 9 0 16 7 16 15 0 8 -2 15 -4 15 -2
0 -9 -7 -16 -15z"/>
<path d="M4698 603 c6 -2 18 -2 25 0 6 3 1 5 -13 5 -14 0 -19 -2 -12 -5z"/>
<path d="M4918 593 c6 -2 18 -2 25 0 6 3 1 5 -13 5 -14 0 -19 -2 -12 -5z"/>
<path d="M6730 591 c0 -3 18 -7 40 -8 22 -1 40 2 40 6 0 5 -18 9 -40 9 -22 0
-40 -3 -40 -7z"/>
<path d="M4718 571 c-19 -18 -24 -41 -10 -41 7 0 13 -79 12 -167 0 -18 5 -33
10 -33 6 0 10 9 10 21 0 12 5 19 13 16 11 -4 13 -9 16 -49 1 -24 31 -11 31 13
0 10 -3 19 -8 19 -4 0 -12 10 -17 22 -6 13 -21 29 -35 36 l-25 13 25 -4 c14
-2 33 -8 43 -12 27 -11 20 10 -9 25 -33 18 -41 35 -45 90 -3 36 0 45 14 48 18
4 24 -22 7 -33 -13 -8 -13 -25 0 -25 16 0 23 49 10 65 -16 19 -21 18 -42 -4z"/>
<path d="M6625 570 c-3 -5 -1 -10 4 -10 6 0 11 5 11 10 0 6 -2 10 -4 10 -3 0
-8 -4 -11 -10z"/>
<path d="M6660 571 c0 -5 7 -11 15 -15 8 -3 15 -1 15 3 0 5 -7 11 -15 15 -8 3
-15 1 -15 -3z"/>
<path d="M6820 570 c0 -5 5 -10 10 -10 6 0 10 -4 10 -10 0 -5 -5 -10 -11 -10
-6 0 -17 -7 -25 -15 -14 -13 -14 -16 1 -21 14 -6 16 -16 10 -60 -8 -64 0 -70
15 -14 9 35 14 40 40 40 16 0 40 -4 54 -10 14 -5 28 -5 31 0 8 13 -48 38 -70
30 -19 -7 -65 9 -65 22 0 12 46 20 72 13 20 -5 21 -4 8 7 -9 7 -14 21 -12 31
3 14 -4 17 -32 17 -20 0 -36 -4 -36 -10z"/>
<path d="M6931 561 c-16 -14 -17 -19 -6 -35 13 -17 14 -17 24 2 8 15 8 22 -2
25 -18 8 18 8 37 1 9 -3 14 -9 12 -13 -3 -4 9 -12 26 -19 17 -6 28 -8 24 -5
-3 3 4 13 16 21 16 12 23 12 26 4 6 -20 28 -14 29 8 1 16 -4 20 -28 20 -18 0
-33 -7 -41 -20 -16 -25 -24 -25 -31 -1 -6 25 -62 33 -86 12z"/>
<path d="M4790 543 c0 -25 0 -26 20 -8 11 10 20 19 20 20 0 2 -9 5 -20 8 -16
4 -20 0 -20 -20z"/>
<path d="M4990 559 c0 -5 5 -7 10 -4 6 3 10 8 10 11 0 2 -4 4 -10 4 -5 0 -10
-5 -10 -11z"/>
<path d="M5030 560 c0 -5 7 -10 15 -10 8 0 15 5 15 10 0 6 -7 10 -15 10 -8 0
-15 -4 -15 -10z"/>
<path d="M4955 550 c3 -5 8 -10 11 -10 2 0 4 5 4 10 0 6 -5 10 -11 10 -5 0 -7
-4 -4 -10z"/>
<path d="M6749 547 c6 -8 8 -17 4 -20 -3 -4 0 -7 8 -7 8 0 15 9 16 20 1 14 -4
20 -19 20 -16 0 -18 -3 -9 -13z"/>
<path d="M7180 535 c0 -8 5 -15 10 -15 6 0 10 7 10 15 0 8 -4 15 -10 15 -5 0
-10 -7 -10 -15z"/>
<path d="M4885 530 c-3 -5 3 -10 14 -10 12 0 21 5 21 10 0 6 -6 10 -14 10 -8
0 -18 -4 -21 -10z"/>
<path d="M6720 532 c0 -7 -7 -12 -16 -10 -10 2 -19 -3 -21 -9 -3 -7 2 -13 11
-13 9 0 16 -6 16 -14 0 -8 7 -16 15 -20 18 -7 20 10 3 17 -10 4 -10 8 1 15 10
7 11 14 2 28 -6 11 -11 13 -11 6z"/>
<path d="M7137 515 c5 -21 2 -25 -17 -25 -19 0 -20 -3 -10 -15 10 -12 15 -12
35 1 18 12 22 20 16 37 -11 31 -29 33 -24 2z"/>
<path d="M5540 519 c0 -5 5 -7 10 -4 6 3 10 8 10 11 0 2 -4 4 -10 4 -5 0 -10
-5 -10 -11z"/>
<path d="M7060 519 c0 -5 5 -7 10 -4 6 3 10 8 10 11 0 2 -4 4 -10 4 -5 0 -10
-5 -10 -11z"/>
<path d="M2666 495 c-13 -20 -14 -25 -2 -25 7 0 16 10 19 22 9 31 2 33 -17 3z"/>
<path d="M4845 509 c-10 -15 3 -25 16 -12 7 7 7 13 1 17 -6 3 -14 1 -17 -5z"/>
<path d="M5380 504 c0 -8 5 -12 10 -9 6 3 10 10 10 16 0 5 -4 9 -10 9 -5 0
-10 -7 -10 -16z"/>
<path d="M5081 494 c0 -11 3 -14 6 -6 3 7 2 16 -1 19 -3 4 -6 -2 -5 -13z"/>
<path d="M6990 495 c0 -8 -5 -15 -12 -15 -9 0 -9 -3 1 -12 10 -11 15 -9 26 6
14 19 12 36 -6 36 -5 0 -9 -7 -9 -15z"/>
<path d="M5280 490 c0 -5 5 -10 11 -10 5 0 7 5 4 10 -3 6 -8 10 -11 10 -2 0
-4 -4 -4 -10z"/>
<path d="M5500 490 c0 -5 5 -10 11 -10 5 0 7 5 4 10 -3 6 -8 10 -11 10 -2 0
-4 -4 -4 -10z"/>
<path d="M6211 481 c-20 -15 -21 -19 -7 -24 10 -4 20 1 27 14 15 28 8 31 -20
10z"/>
<path d="M187 484 c-9 -10 4 -34 19 -34 8 0 14 4 14 9 0 12 -26 32 -33 25z"/>
<path d="M4690 479 c0 -5 5 -7 10 -4 6 3 10 8 10 11 0 2 -4 4 -10 4 -5 0 -10
-5 -10 -11z"/>
<path d="M4790 465 c-16 -19 -10 -19 26 0 25 13 26 15 8 15 -12 0 -27 -7 -34
-15z"/>
<path d="M4980 470 c0 -5 5 -10 10 -10 6 0 10 5 10 10 0 6 -4 10 -10 10 -5 0
-10 -4 -10 -10z"/>
<path d="M4897 453 c-8 -7 11 -33 24 -33 5 0 9 9 9 20 0 19 -20 27 -33 13z"/>
<path d="M5318 453 c7 -3 16 -2 19 1 4 3 -2 6 -13 5 -11 0 -14 -3 -6 -6z"/>
<path d="M6762 453 c-19 -8 -4 -22 18 -16 11 3 17 9 14 14 -6 10 -12 10 -32 2z"/>
<path d="M7140 450 c-28 -9 -19 -13 20 -10 30 2 53 20 25 19 -11 -1 -31 -5
-45 -9z"/>
<path d="M4815 440 c3 -5 8 -10 11 -10 2 0 4 5 4 10 0 6 -5 10 -11 10 -5 0 -7
-4 -4 -10z"/>
<path d="M6305 440 c-3 -5 -1 -10 4 -10 6 0 11 5 11 10 0 6 -2 10 -4 10 -3 0
-8 -4 -11 -10z"/>
<path d="M7000 441 c0 -4 12 -13 26 -20 20 -9 25 -9 22 0 -5 14 -48 32 -48 20z"/>
<path d="M7088 436 c-24 -18 -23 -29 2 -21 14 5 20 2 20 -9 0 -10 9 -16 23
-16 22 1 22 1 -5 24 -15 13 -24 27 -21 30 11 11 -2 6 -19 -8z"/>
<path d="M6950 435 c1 -15 26 -45 39 -45 17 0 13 20 -6 27 -10 4 -21 11 -25
17 -5 7 -8 7 -8 1z"/>
<path d="M4990 420 c0 -5 5 -10 10 -10 6 0 10 5 10 10 0 6 -4 10 -10 10 -5 0
-10 -4 -10 -10z"/>
<path d="M6190 421 c0 -5 5 -13 10 -16 6 -3 10 -2 10 4 0 5 -4 13 -10 16 -5 3
-10 2 -10 -4z"/>
<path d="M6638 423 c7 -3 16 -2 19 1 4 3 -2 6 -13 5 -11 0 -14 -3 -6 -6z"/>
<path d="M4816 412 c-3 -6 1 -13 10 -16 23 -9 28 -2 10 13 -8 7 -17 8 -20 3z"/>
<path d="M6700 413 c8 -4 25 -18 37 -32 25 -28 27 -27 37 9 5 17 4 21 -2 11
-8 -11 -14 -11 -33 3 -13 9 -30 16 -39 15 -13 0 -13 -1 0 -6z"/>
<path d="M7175 410 c-3 -5 1 -10 9 -10 9 0 16 5 16 10 0 6 -4 10 -9 10 -6 0
-13 -4 -16 -10z"/>
<path d="M4875 392 c-16 -12 -16 -32 0 -32 8 0 15 9 15 20 0 22 -1 23 -15 12z"/>
<path d="M5010 389 l-25 -7 26 -1 c32 -1 42 -10 28 -27 -6 -7 -6 -14 -1 -18 6
-3 15 1 22 9 19 23 -16 54 -50 44z"/>
<path d="M7050 385 c0 -8 7 -15 15 -15 8 0 15 7 15 15 0 8 -7 15 -15 15 -8 0
-15 -7 -15 -15z"/>
<path d="M4920 381 c0 -5 5 -13 10 -16 6 -3 10 -2 10 4 0 5 -4 13 -10 16 -5 3
-10 2 -10 -4z"/>
<path d="M5110 367 c0 -8 -9 -22 -20 -32 -13 -12 -17 -22 -11 -28 14 -14 44 0
37 18 -3 8 1 21 9 29 19 19 19 26 0 26 -8 0 -15 -6 -15 -13z"/>
<path d="M6552 370 c5 -17 88 -27 88 -11 0 6 -12 8 -30 5 -19 -4 -36 -1 -47 7
-14 12 -16 12 -11 -1z"/>
<path d="M6870 370 c0 -5 5 -10 10 -10 6 0 10 5 10 10 0 6 -4 10 -10 10 -5 0
-10 -4 -10 -10z"/>
<path d="M7100 365 c0 -8 -7 -15 -15 -15 -8 0 -15 -4 -15 -10 0 -15 33 -11 55
7 16 13 17 15 3 10 -20 -7 -25 9 -5 16 7 3 5 6 -5 6 -10 1 -18 -6 -18 -14z"/>
<path d="M5520 349 c0 -11 4 -18 10 -14 5 3 7 12 3 20 -7 21 -13 19 -13 -6z"/>
<path d="M7008 363 c7 -3 16 -2 19 1 4 3 -2 6 -13 5 -11 0 -14 -3 -6 -6z"/>
<path d="M4825 350 c4 -6 11 -8 16 -5 14 9 11 15 -7 15 -8 0 -12 -5 -9 -10z"/>
<path d="M6505 350 c-3 -5 1 -10 10 -10 9 0 13 5 10 10 -3 6 -8 10 -10 10 -2
0 -7 -4 -10 -10z"/>
<path d="M6900 350 c0 -12 17 -12 45 0 17 7 15 9 -12 9 -18 1 -33 -3 -33 -9z"/>
<path d="M6671 334 c13 -16 29 -19 29 -5 0 5 -9 11 -21 14 -16 4 -18 3 -8 -9z"/>
<path d="M6776 334 c-5 -13 -9 -14 -21 -4 -19 16 -20 3 -1 -15 12 -12 16 -11
30 10 9 14 12 25 7 25 -5 0 -12 -7 -15 -16z"/>
<path d="M4880 330 c0 -5 7 -7 15 -4 8 4 15 8 15 10 0 2 -7 4 -15 4 -8 0 -15
-4 -15 -10z"/>
<path d="M4992 329 c2 -7 10 -15 17 -17 8 -3 12 1 9 9 -2 7 -10 15 -17 17 -8
3 -12 -1 -9 -9z"/>
<path d="M7135 330 c-3 -5 3 -10 14 -10 12 0 21 5 21 10 0 6 -6 10 -14 10 -8
0 -18 -4 -21 -10z"/>
<path d="M6405 320 c3 -5 8 -10 11 -10 2 0 4 5 4 10 0 6 -5 10 -11 10 -5 0 -7
-4 -4 -10z"/>
<path d="M6845 310 c-10 -11 -13 -20 -7 -20 6 0 19 -3 29 -6 13 -4 15 -3 4 4
-9 7 -10 12 -2 16 13 8 15 26 3 26 -5 0 -17 -9 -27 -20z"/>
<path d="M6634 306 c-9 -10 -5 -13 17 -13 34 0 36 3 12 16 -12 6 -22 5 -29 -3z"/>
<path d="M7040 310 c0 -5 5 -10 11 -10 5 0 7 5 4 10 -3 6 -8 10 -11 10 -2 0
-4 -4 -4 -10z"/>
<path d="M4919 305 c-3 -2 -16 -7 -30 -9 -13 -2 -25 -5 -27 -5 -8 -2 28 -31
38 -31 7 0 10 7 6 15 -4 10 1 15 14 15 11 0 20 5 20 10 0 10 -13 14 -21 5z"/>
<path d="M6970 289 c0 -5 5 -7 10 -4 6 3 10 8 10 11 0 2 -4 4 -10 4 -5 0 -10
-5 -10 -11z"/>
<path d="M5002 281 c2 -7 7 -12 11 -12 12 1 9 15 -3 20 -7 2 -11 -2 -8 -8z"/>
<path d="M6542 276 c1 -10 8 -17 13 -17 15 1 12 24 -3 29 -9 3 -13 -2 -10 -12z"/>
<path d="M7180 281 c0 -6 5 -13 10 -16 6 -3 10 1 10 9 0 9 -4 16 -10 16 -5 0
-10 -4 -10 -9z"/>
<path d="M4920 264 c0 -12 3 -23 6 -27 9 -9 54 15 47 26 -3 5 -9 3 -14 -4 -8
-11 -12 -10 -24 5 -15 20 -15 20 -15 0z"/>
<path d="M7005 270 c4 -6 11 -8 16 -5 14 9 11 15 -7 15 -8 0 -12 -5 -9 -10z"/>
<path d="M7100 266 c0 -8 5 -18 10 -21 6 -3 10 -1 10 4 0 6 8 11 18 12 14 0
14 2 -3 9 -29 12 -35 12 -35 -4z"/>
<path d="M4830 260 c0 -5 7 -10 15 -10 8 0 15 5 15 10 0 6 -7 10 -15 10 -8 0
-15 -4 -15 -10z"/>
<path d="M5202 250 c0 -14 2 -19 5 -12 2 6 2 18 0 25 -3 6 -5 1 -5 -13z"/>
<path d="M5380 258 c0 -9 5 -20 10 -23 13 -8 13 5 0 25 -8 13 -10 13 -10 -2z"/>
<path d="M5860 260 c0 -5 5 -10 10 -10 6 0 10 5 10 10 0 6 -4 10 -10 10 -5 0
-10 -4 -10 -10z"/>
<path d="M6495 250 c3 -5 8 -10 11 -10 2 0 4 5 4 10 0 6 -5 10 -11 10 -5 0 -7
-4 -4 -10z"/>
<path d="M6770 250 c0 -5 5 -10 11 -10 5 0 7 5 4 10 -3 6 -8 10 -11 10 -2 0
-4 -4 -4 -10z"/>
<path d="M5090 234 c0 -8 5 -12 10 -9 6 4 8 11 5 16 -9 14 -15 11 -15 -7z"/>
<path d="M5240 229 c0 -11 5 -17 10 -14 6 3 10 13 10 21 0 8 -4 14 -10 14 -5
0 -10 -9 -10 -21z"/>
<path d="M3550 230 c-24 -15 -7 -18 20 -3 14 7 18 13 10 13 -8 0 -22 -4 -30
-10z"/>
<path d="M4730 231 c0 -6 5 -13 10 -16 17 -10 11 -26 -8 -23 -36 6 -26 -17 12
-30 33 -11 42 -10 63 3 13 9 28 13 33 10 5 -3 11 -1 14 4 6 10 -18 23 -47 26
-13 2 -16 -3 -12 -16 5 -14 2 -17 -9 -13 -10 4 -16 18 -16 35 0 22 -5 29 -20
29 -11 0 -20 -4 -20 -9z"/>
<path d="M4980 232 c0 -5 -19 -14 -42 -19 l-43 -11 40 0 c22 0 47 -1 55 -3 18
-5 21 32 3 39 -7 2 -13 -1 -13 -6z"/>
<path d="M5550 231 c0 -5 5 -13 10 -16 6 -3 10 -2 10 4 0 5 -4 13 -10 16 -5 3
-10 2 -10 -4z"/>
<path d="M7178 233 c7 -3 16 -2 19 1 4 3 -2 6 -13 5 -11 0 -14 -3 -6 -6z"/>
<path d="M4855 220 c-3 -5 1 -10 10 -10 9 0 13 5 10 10 -3 6 -8 10 -10 10 -2
0 -7 -4 -10 -10z"/>
<path d="M5042 212 c-18 -14 -20 -20 -10 -30 10 -10 10 -14 -1 -21 -10 -6 -10
-10 -1 -16 17 -11 29 6 34 48 3 20 4 37 3 37 -1 0 -12 -8 -25 -18z"/>
<path d="M6845 220 c3 -5 8 -10 11 -10 2 0 4 5 4 10 0 6 -5 10 -11 10 -5 0 -7
-4 -4 -10z"/>
<path d="M6220 210 c0 -5 5 -10 10 -10 6 0 10 5 10 10 0 6 -4 10 -10 10 -5 0
-10 -4 -10 -10z"/>
<path d="M6987 213 c-2 -5 5 -17 16 -27 18 -17 20 -17 14 -2 -4 10 -7 22 -7
27 0 11 -17 12 -23 2z"/>
<path d="M5640 200 c0 -5 5 -10 11 -10 5 0 7 5 4 10 -3 6 -8 10 -11 10 -2 0
-4 -4 -4 -10z"/>
<path d="M5798 203 c7 -3 16 -2 19 1 4 3 -2 6 -13 5 -11 0 -14 -3 -6 -6z"/>
<path d="M4920 180 c-24 -8 -23 -8 8 -9 17 -1 32 4 32 9 0 11 -5 11 -40 0z"/>
<path d="M5200 176 c0 -9 5 -16 10 -16 6 0 10 4 10 9 0 6 -4 13 -10 16 -5 3
-10 -1 -10 -9z"/>
<path d="M6827 183 c-4 -3 -7 -11 -7 -17 0 -6 5 -5 12 2 6 6 9 14 7 17 -3 3
-9 2 -12 -2z"/>
<path d="M5600 169 c0 -5 5 -7 10 -4 6 3 10 8 10 11 0 2 -4 4 -10 4 -5 0 -10
-5 -10 -11z"/>
<path d="M6395 170 c-3 -5 -1 -10 4 -10 6 0 11 5 11 10 0 6 -2 10 -4 10 -3 0
-8 -4 -11 -10z"/>
<path d="M3217 163 c-4 -3 -7 -11 -7 -17 0 -6 5 -5 12 2 6 6 9 14 7 17 -3 3
-9 2 -12 -2z"/>
<path d="M6705 160 c-7 -12 27 -22 37 -12 6 6 1 12 -11 15 -12 3 -23 2 -26 -3z"/>
<path d="M4872 148 c5 -15 37 -18 41 -3 1 6 -9 12 -22 13 -16 3 -22 -1 -19
-10z"/>
<path d="M6467 139 c4 -15 8 -17 14 -8 8 14 3 29 -11 29 -4 0 -6 -9 -3 -21z"/>
<path d="M7010 153 c0 -4 8 -17 16 -28 15 -20 16 -20 12 4 -3 22 -28 44 -28
24z"/>
<path d="M3385 140 c-4 -6 5 -10 20 -10 15 0 24 4 20 10 -3 6 -12 10 -20 10
-8 0 -17 -4 -20 -10z"/>
<path d="M4793 135 c-9 -10 -6 -15 13 -24 14 -6 34 -11 44 -11 12 0 20 -7 20
-17 0 -13 3 -14 11 -6 15 15 -24 59 -42 48 -7 -5 -17 -2 -23 7 -9 12 -14 13
-23 3z"/>
<path d="M5578 143 c7 -3 16 -2 19 1 4 3 -2 6 -13 5 -11 0 -14 -3 -6 -6z"/>
<path d="M5620 140 c0 -5 5 -10 10 -10 6 0 10 5 10 10 0 6 -4 10 -10 10 -5 0
-10 -4 -10 -10z"/>
<path d="M6300 140 c0 -5 5 -10 11 -10 5 0 7 5 4 10 -3 6 -8 10 -11 10 -2 0
-4 -4 -4 -10z"/>
<path d="M6363 133 c-15 -5 -17 -23 -4 -23 5 0 11 7 15 15 3 8 4 15 3 14 -1 0
-8 -3 -14 -6z"/>
<path d="M6765 130 c-3 -5 -1 -10 4 -10 6 0 11 5 11 10 0 6 -2 10 -4 10 -3 0
-8 -4 -11 -10z"/>
<path d="M6920 130 c0 -5 5 -10 11 -10 5 0 7 5 4 10 -3 6 -8 10 -11 10 -2 0
-4 -4 -4 -10z"/>
<path d="M4633 124 c3 -3 -3 -14 -14 -25 -22 -22 -25 -39 -6 -39 6 0 18 12 25
27 15 34 15 43 0 43 -6 0 -9 -3 -5 -6z"/>
<path d="M6607 116 c-9 -7 -17 -19 -17 -27 0 -9 8 -6 22 9 25 24 22 37 -5 18z"/>
<path d="M5015 88 c4 -18 8 -33 9 -34 0 0 14 -10 30 -22 36 -27 42 -27 49 -1
6 23 -27 64 -43 54 -17 -10 -11 -23 13 -28 19 -4 18 -4 -5 -6 -26 -1 -28 2
-28 34 0 25 -4 35 -16 35 -12 0 -14 -7 -9 -32z"/>
<path d="M5250 106 c0 -9 5 -16 10 -16 6 0 10 4 10 9 0 6 -4 13 -10 16 -5 3
-10 -1 -10 -9z"/>
<path d="M6080 108 c0 -4 7 -8 15 -8 8 0 15 4 15 8 0 5 -7 9 -15 9 -8 0 -15
-4 -15 -9z"/>
<path d="M6150 106 c0 -8 -6 -17 -12 -19 -7 -3 -3 -6 10 -6 22 -1 31 22 12 34
-5 3 -10 0 -10 -9z"/>
<path d="M6220 101 c0 -6 5 -13 10 -16 6 -3 10 1 10 9 0 9 -4 16 -10 16 -5 0
-10 -4 -10 -9z"/>
<path d="M4950 90 c0 -5 4 -10 9 -10 5 0 16 -3 25 -6 11 -4 16 -1 16 10 0 10
-9 16 -25 16 -14 0 -25 -4 -25 -10z"/>
<path d="M5330 75 c0 -14 5 -25 10 -25 6 0 10 11 10 25 0 14 -4 25 -10 25 -5
0 -10 -11 -10 -25z"/>
<path d="M6965 93 c15 -15 65 -25 65 -13 0 5 -6 10 -12 10 -7 0 -24 3 -38 6
-17 5 -22 3 -15 -3z"/>
<path d="M7102 75 c-16 -9 -20 -15 -12 -20 7 -4 15 -3 19 2 3 6 13 12 21 15 7
2 10 7 5 10 -6 2 -21 -1 -33 -7z"/>
<path d="M6366 65 c-3 -8 -1 -15 4 -15 13 0 22 18 11 24 -5 3 -11 -1 -15 -9z"/>
<path d="M7175 70 c-3 -5 1 -10 9 -10 9 0 16 5 16 10 0 6 -4 10 -9 10 -6 0
-13 -4 -16 -10z"/>
<path d="M5265 53 c-15 -12 -16 -14 -3 -10 9 3 19 1 21 -6 3 -9 8 -9 16 -1 21
20 -10 35 -34 17z"/>
<path d="M6905 60 c-8 -13 -1 -24 14 -19 6 3 7 10 2 18 -6 10 -10 10 -16 1z"/>
<path d="M4985 41 c5 -17 2 -21 -14 -21 -11 0 -23 -5 -26 -10 -4 -6 13 -10 44
-10 37 0 51 4 51 14 0 9 -7 12 -20 9 -14 -4 -20 0 -20 10 0 9 -5 19 -11 23 -8
4 -9 0 -4 -15z"/>
<path d="M5153 54 c4 -4 2 -13 -5 -21 -15 -18 -2 -29 17 -13 20 16 19 26 -2
34 -10 4 -14 4 -10 0z"/>
<path d="M5445 50 c3 -5 13 -10 21 -10 8 0 12 4 9 10 -3 6 -13 10 -21 10 -8 0
-12 -4 -9 -10z"/>
<path d="M6940 56 c0 -2 7 -7 16 -10 8 -3 12 -2 9 4 -6 10 -25 14 -25 6z"/>
<path d="M2188 30 c-7 -24 -3 -38 8 -28 3 4 4 17 2 30 l-3 23 -7 -25z"/>
<path d="M5990 41 c0 -5 5 -13 10 -16 6 -3 10 -2 10 4 0 5 -4 13 -10 16 -5 3
-10 2 -10 -4z"/>
<path d="M6470 39 c0 -5 5 -7 10 -4 6 3 10 8 10 11 0 2 -4 4 -10 4 -5 0 -10
-5 -10 -11z"/>
<path d="M6516 35 c-3 -8 -1 -15 4 -15 6 0 10 7 10 15 0 8 -2 15 -4 15 -2 0
-6 -7 -10 -15z"/>
<path d="M7068 25 c-6 -28 6 -34 16 -9 8 22 7 34 -3 34 -5 0 -11 -11 -13 -25z"/>
<path d="M7135 40 c3 -5 8 -10 11 -10 2 0 4 5 4 10 0 6 -5 10 -11 10 -5 0 -7
-4 -4 -10z"/>
<path d="M7168 44 c-8 -8 3 -44 13 -44 5 0 9 11 9 25 0 24 -10 32 -22 19z"/>
<path d="M5207 34 c-8 -8 1 -24 14 -24 5 0 9 7 9 15 0 15 -12 20 -23 9z"/>
<path d="M5355 30 c-19 -8 -19 -9 3 -9 12 -1 22 4 22 9 0 6 -1 10 -2 9 -2 0
-12 -4 -23 -9z"/>
<path d="M6790 33 c0 -4 5 -15 10 -23 8 -13 10 -13 10 2 0 9 -4 20 -10 23 -5
3 -10 3 -10 -2z"/>
<path d="M5546 15 c-3 -8 -1 -15 4 -15 13 0 22 18 11 24 -5 3 -11 -1 -15 -9z"/>
<path d="M6080 19 c0 -5 5 -7 10 -4 6 3 10 8 10 11 0 2 -4 4 -10 4 -5 0 -10
-5 -10 -11z"/>
<path d="M6405 20 c-3 -5 1 -10 9 -10 9 0 16 5 16 10 0 6 -4 10 -9 10 -6 0
-13 -4 -16 -10z"/>
<path d="M5260 10 c0 -5 5 -10 10 -10 6 0 10 5 10 10 0 6 -4 10 -10 10 -5 0
-10 -4 -10 -10z"/>
<path d="M6217 9 c7 -7 15 -10 18 -7 3 3 -2 9 -12 12 -14 6 -15 5 -6 -5z"/>
<path d="M6880 10 c0 -5 7 -10 15 -10 8 0 15 5 15 10 0 6 -7 10 -15 10 -8 0
-15 -4 -15 -10z"/>
<path d="M6668 3 c7 -3 16 -2 19 1 4 3 -2 6 -13 5 -11 0 -14 -3 -6 -6z"/>
</g>
</svg>
